<svg xmlns="http://www.w3.org/2000/svg" xmlns:xlink="http://www.w3.org/1999/xlink" width="500" zoomAndPan="magnify" viewBox="0 0 375 374.999991" height="500" preserveAspectRatio="xMidYMid meet" version="1.0"><defs><clipPath id="9b5fd64c17"><path d="M 71.015625 160 L 186 160 L 186 309 L 71.015625 309 Z M 71.015625 160 " clip-rule="nonzero"/></clipPath><clipPath id="f8d39adcba"><path d="M 227.351562 171.496094 L 304.214844 171.496094 L 304.214844 264.320312 L 227.351562 264.320312 Z M 227.351562 171.496094 " clip-rule="nonzero"/></clipPath><clipPath id="cc61b99424"><path d="M 233.074219 315.363281 L 291.476562 315.363281 L 291.476562 374.992188 L 233.074219 374.992188 Z M 233.074219 315.363281 " clip-rule="nonzero"/></clipPath></defs><g clip-path="url(#9b5fd64c17)"><path fill="#828442" d="M 71.078125 250.4375 C 71.121094 246.929688 71.667969 243.472656 72.136719 240.015625 C 73.003906 233.667969 73.894531 227.328125 74.914062 221.003906 C 76.863281 208.863281 79.316406 196.839844 83.824219 185.328125 C 85.003906 182.316406 86.34375 179.386719 87.960938 176.578125 C 91.144531 171.050781 95.851562 167.554688 101.960938 165.847656 C 106.0625 164.699219 110.261719 164.160156 114.46875 163.628906 C 119.09375 163.042969 123.714844 162.453125 128.34375 161.882812 C 131.441406 161.496094 134.546875 161.140625 137.648438 160.773438 C 137.582031 161.394531 137.886719 161.902344 138.15625 162.417969 C 139.046875 164.097656 139.996094 165.753906 140.828125 167.464844 C 143.398438 172.75 145.910156 178.0625 148.480469 183.34375 C 150.125 186.726562 151.917969 190.042969 153.503906 193.453125 C 155 196.667969 156.550781 199.851562 158.273438 202.953125 C 159.070312 204.386719 159.9375 205.765625 160.917969 207.078125 C 161.839844 208.3125 163.09375 208.730469 164.570312 208.46875 C 165.304688 208.335938 165.949219 207.9375 166.546875 207.488281 C 168.742188 205.847656 170.914062 204.167969 173.144531 202.570312 C 175.636719 200.789062 178.164062 199.058594 180.707031 197.351562 C 181.378906 196.902344 181.777344 196.058594 182.671875 195.867188 C 183.183594 196.871094 182.570312 197.710938 182.5625 198.582031 C 182.539062 202.230469 182.339844 205.878906 182.308594 209.519531 C 182.210938 219.628906 182.003906 229.746094 182.554688 239.851562 C 182.722656 242.964844 182.542969 246.074219 182.804688 249.203125 C 183.128906 253.035156 183 256.910156 183.132812 260.765625 C 183.273438 264.78125 183.75 268.785156 183.523438 272.8125 C 183.515625 272.917969 183.507812 273.03125 183.535156 273.128906 C 184.207031 275.554688 183.671875 278.066406 184.089844 280.535156 C 184.4375 282.59375 184.363281 284.753906 184.386719 286.847656 C 184.4375 290.867188 184.9375 294.867188 184.796875 298.894531 C 184.765625 299.738281 184.648438 300.621094 184.832031 301.429688 C 185.359375 303.714844 184.84375 306.082031 185.441406 308.351562 C 183.625 308.003906 181.808594 307.65625 179.992188 307.308594 C 175.835938 306.507812 171.667969 305.78125 167.46875 305.230469 C 164.425781 304.832031 161.382812 304.476562 158.320312 304.230469 C 154.472656 303.917969 150.640625 303.441406 146.796875 303.050781 C 142.902344 302.65625 139.023438 302.148438 135.152344 301.566406 C 134.863281 300.222656 134.847656 300.132812 133.710938 300.171875 C 130.839844 300.273438 128.035156 299.628906 125.191406 299.445312 C 123.960938 299.367188 122.644531 299.386719 121.449219 298.886719 C 120.933594 297.960938 120.566406 296.996094 120.386719 295.933594 C 119.554688 290.992188 119.257812 285.992188 118.929688 281.007812 C 118.667969 277.015625 118.371094 273.011719 118.480469 268.996094 C 119.769531 268.722656 119.804688 268.722656 119.804688 267.507812 C 119.804688 263.867188 119.621094 260.222656 119.550781 256.585938 C 119.375 247.160156 119.492188 237.730469 119.492188 228.304688 C 119.492188 227.882812 119.519531 227.453125 119.476562 227.035156 C 119.414062 226.367188 118.859375 225.820312 118.265625 225.789062 C 117.621094 225.757812 116.914062 226.347656 116.96875 227.089844 C 117.113281 229.164062 116.589844 231.183594 116.605469 233.246094 C 116.691406 244.515625 116.4375 255.789062 116.945312 267.050781 C 114.824219 266.398438 112.695312 265.777344 110.589844 265.085938 C 100.742188 261.859375 90.898438 258.609375 81.054688 255.371094 C 78.757812 254.613281 76.457031 253.878906 74.25 253.164062 C 72.582031 252.523438 71.050781 252.609375 71.078125 250.4375 " fill-opacity="1" fill-rule="nonzero"/></g><path fill="#fab685" d="M 292.800781 256.726562 C 292.804688 257.960938 293.210938 259.125 293.550781 260.28125 C 294.53125 263.609375 294.699219 267.039062 295.027344 270.453125 C 295.273438 273.027344 295.582031 275.597656 295.875 278.164062 C 296.023438 279.476562 296.070312 280.796875 296.210938 282.113281 C 296.46875 284.527344 296.480469 286.96875 296.628906 289.398438 C 296.984375 295.257812 297.054688 301.132812 297.339844 306.996094 C 297.679688 314.042969 297.585938 321.082031 297.46875 328.121094 C 297.421875 330.949219 297.105469 333.796875 296.433594 336.597656 C 295.648438 339.898438 294.019531 342.675781 291.824219 345.175781 C 290.605469 346.5625 289.484375 348.058594 287.933594 349.125 C 287.667969 349.304688 287.445312 349.535156 287.109375 349.570312 C 286.753906 348.148438 286.359375 347.910156 285.011719 348.476562 C 282.617188 349.476562 280.25 350.542969 277.859375 351.5625 C 276.15625 352.289062 274.421875 352.945312 272.730469 353.703125 C 270.875 354.53125 268.980469 354.105469 267.097656 353.980469 C 264.65625 353.816406 262.230469 353.488281 259.980469 352.503906 C 257.847656 351.570312 255.773438 350.480469 253.71875 349.378906 C 251.242188 348.050781 249.304688 346.128906 247.820312 343.742188 C 246.449219 341.539062 245.015625 339.375 243.65625 337.164062 C 241.257812 333.277344 239.253906 329.199219 237.660156 324.914062 C 236.699219 322.332031 235.964844 319.683594 235.148438 317.054688 C 234.933594 316.359375 234.835938 315.558594 233.890625 315.414062 C 233.273438 312.84375 232.652344 310.277344 232.042969 307.703125 C 230.398438 300.8125 228.792969 293.917969 227.484375 286.953125 C 225.6875 277.398438 223.847656 267.84375 221.597656 258.386719 C 218.03125 243.367188 214.085938 228.433594 210.511719 213.414062 C 209.976562 211.171875 209.375 208.902344 208.105469 206.902344 C 207.960938 205.90625 207.363281 205.136719 206.8125 204.34375 C 206.34375 203.246094 205.582031 202.414062 204.585938 201.757812 C 203.703125 201.179688 202.820312 200.589844 202.015625 199.910156 C 198.675781 197.078125 196.148438 193.726562 195.269531 189.308594 C 194.75 186.707031 194.589844 184.085938 194.625 181.445312 C 195.457031 181.367188 195.628906 180.816406 195.628906 180.101562 C 195.628906 178.667969 195.511719 177.214844 195.714844 175.8125 C 196.007812 173.777344 195.863281 171.726562 196.179688 169.660156 C 196.941406 169.082031 197.757812 168.488281 198.539062 167.859375 C 199.597656 167 200.871094 166.679688 202.125 166.890625 C 204.808594 167.347656 207.539062 166.808594 210.203125 167.40625 C 210.804688 167.542969 211.425781 167.359375 211.5 166.59375 C 211.574219 165.847656 211.085938 165.609375 210.414062 165.527344 C 207.734375 165.210938 205.042969 165.039062 202.351562 164.871094 C 199.949219 164.71875 198.007812 165.476562 196.238281 166.984375 C 195.109375 167.953125 193.886719 168.816406 192.480469 169.335938 C 190.882812 169.933594 189.277344 170.054688 187.808594 168.945312 C 186.886719 168.25 186.835938 167.953125 187.578125 167.019531 C 189.46875 164.664062 191.554688 162.480469 193.636719 160.292969 C 194.433594 159.457031 195.285156 159.125 196.433594 159.101562 C 200.703125 159.011719 204.863281 159.753906 209.019531 160.582031 C 210.105469 160.800781 211.207031 160.941406 212.304688 161.085938 C 212.753906 161.144531 213.171875 160.988281 213.34375 160.527344 C 213.550781 159.976562 213.210938 159.609375 212.792969 159.335938 C 212.394531 159.074219 211.941406 158.941406 211.457031 158.859375 C 209.84375 158.59375 208.234375 158.292969 206.621094 158.003906 C 203.234375 157.394531 199.839844 156.851562 196.378906 156.9375 C 194.78125 156.980469 193.308594 157.414062 192.265625 158.671875 C 190.605469 160.671875 188.578125 162.335938 187.019531 164.425781 C 186.425781 165.21875 185.554688 165.417969 184.648438 165.527344 C 182.5625 165.777344 180.644531 165.292969 178.882812 164.171875 C 177.492188 163.289062 177.433594 162.921875 178.546875 161.761719 C 179.726562 160.539062 180.949219 159.359375 182.085938 158.101562 C 184.539062 155.390625 186.929688 152.625 189.589844 150.109375 C 190.3125 149.425781 191.113281 148.726562 192.179688 148.660156 C 193.558594 148.582031 194.953125 148.511719 196.3125 148.753906 C 200.894531 149.578125 205.40625 150.738281 209.898438 151.957031 C 211.324219 152.347656 212.773438 152.65625 214.214844 152.992188 C 214.855469 153.144531 215.429688 153 215.632812 152.335938 C 215.835938 151.660156 215.378906 151.246094 214.800781 150.988281 C 214.613281 150.90625 214.386719 150.898438 214.183594 150.851562 C 213.460938 150.691406 212.738281 150.535156 212.019531 150.351562 C 206.691406 148.992188 201.402344 147.480469 195.957031 146.601562 C 192.78125 146.089844 190.015625 146.554688 187.6875 149.050781 C 185.445312 151.449219 183.09375 153.753906 180.925781 156.222656 C 180.160156 157.097656 179.320312 157.164062 178.363281 156.742188 C 177.832031 156.511719 177.332031 156.203125 176.84375 155.886719 C 174.449219 154.335938 175.070312 154.058594 176.359375 152.503906 C 178.699219 149.6875 181.335938 147.144531 183.949219 144.582031 C 185.367188 143.195312 187.003906 142.339844 189.09375 142.589844 C 189.78125 142.671875 190.453125 142.789062 191.128906 142.898438 C 196.148438 143.683594 201.148438 144.558594 205.976562 146.207031 C 206.382812 146.347656 206.777344 146.496094 207.210938 146.433594 C 207.992188 146.316406 208.3125 145.488281 207.828125 144.871094 C 207.585938 144.5625 207.230469 144.421875 206.882812 144.308594 C 205.777344 143.9375 204.679688 143.542969 203.550781 143.257812 C 199.191406 142.167969 194.789062 141.296875 190.335938 140.628906 C 188.308594 140.328125 186.425781 140.335938 184.667969 141.417969 C 183.632812 142.054688 182.597656 142.121094 181.472656 141.785156 C 180.816406 141.585938 180.128906 141.480469 179.460938 141.316406 C 176.519531 140.574219 173.65625 139.621094 171.140625 137.859375 C 169.152344 136.464844 167.78125 134.683594 167.730469 132.152344 C 168.375 131.535156 169.105469 131.4375 169.859375 131.511719 C 171.960938 131.71875 174.070312 131.902344 176.164062 132.1875 C 179.148438 132.597656 182.109375 133.148438 185.078125 133.648438 C 192.117188 134.832031 199.140625 136.082031 206.050781 137.890625 C 208.355469 138.496094 210.652344 139.140625 212.925781 139.847656 C 215.726562 140.722656 217.515625 142.835938 218.992188 145.203125 C 220.761719 148.027344 222.644531 150.800781 224.011719 153.859375 C 224.445312 154.832031 225.058594 155.285156 226.125 154.984375 C 226.835938 158.925781 227.03125 162.910156 227.195312 166.902344 C 227.261719 168.476562 227.542969 170.035156 227.511719 171.621094 C 227.746094 173.558594 227.914062 175.507812 228.222656 177.4375 C 229.355469 184.519531 231.664062 191.28125 233.941406 198.046875 C 234.816406 200.660156 235.875 203.195312 237.152344 205.648438 C 239.96875 211.050781 242.679688 216.507812 245.511719 221.898438 C 249.800781 230.058594 254.1875 238.164062 258.476562 246.320312 C 260.863281 250.863281 263.140625 255.46875 265.464844 260.050781 C 265.050781 260.613281 265.078125 261.179688 265.296875 261.84375 C 268.351562 271.183594 271.195312 280.589844 273.953125 290.023438 C 275.183594 294.230469 276.378906 298.445312 277.253906 302.742188 C 277.546875 304.1875 277.757812 305.660156 278.371094 307.027344 C 278.648438 307.640625 279.101562 307.972656 279.761719 307.710938 C 280.371094 307.476562 280.394531 306.941406 280.261719 306.375 C 279.789062 304.371094 279.347656 302.363281 278.859375 300.363281 C 276.179688 289.429688 272.84375 278.683594 269.359375 267.980469 C 268.953125 266.730469 268.375 265.523438 268.242188 264.191406 C 269.214844 264.289062 270.128906 264.027344 271.027344 263.71875 C 276.511719 261.835938 281.988281 259.929688 287.476562 258.058594 C 289.210938 257.464844 290.976562 256.960938 292.800781 256.726562 " fill-opacity="1" fill-rule="nonzero"/><path fill="#fab685" d="M 135.152344 301.566406 C 139.023438 302.148438 142.902344 302.65625 146.796875 303.050781 C 150.640625 303.441406 154.472656 303.917969 158.320312 304.230469 C 161.382812 304.476562 164.425781 304.832031 167.46875 305.230469 C 171.667969 305.78125 175.835938 306.507812 179.992188 307.308594 C 181.808594 307.65625 183.625 308.003906 185.441406 308.351562 C 186.371094 308.640625 187.320312 308.824219 188.289062 308.90625 C 188.84375 309.070312 189.390625 309.261719 189.953125 309.394531 C 195.621094 310.746094 201.316406 311.957031 207.082031 312.789062 C 210.007812 313.210938 212.917969 313.828125 215.90625 313.832031 C 220.4375 313.835938 224.71875 314.886719 228.6875 317.128906 C 230.386719 318.089844 232.121094 318.992188 233.839844 319.921875 L 233.832031 319.902344 C 233.871094 320.070312 233.988281 320.160156 234.148438 320.199219 C 234.371094 320.960938 234.578125 321.726562 234.8125 322.484375 C 236.070312 326.535156 237.628906 330.460938 239.675781 334.1875 C 241.539062 337.578125 243.617188 340.839844 245.679688 344.105469 C 247.277344 346.632812 249.167969 348.902344 251.769531 350.480469 C 254.171875 351.941406 256.683594 353.199219 259.246094 354.339844 C 259.851562 354.605469 260.324219 354.953125 260.726562 355.464844 C 262.320312 357.507812 263.925781 359.542969 265.546875 361.5625 C 267.664062 364.207031 269.960938 366.699219 272.195312 369.242188 C 272.828125 369.964844 273.640625 370.621094 273.972656 371.660156 C 273.035156 372.226562 272.125 372.449219 271.070312 372.28125 C 269.253906 371.996094 267.625 371.300781 266.117188 370.265625 C 264.542969 369.1875 262.929688 368.167969 261.363281 367.085938 C 259.621094 365.878906 257.863281 364.671875 256.394531 363.152344 C 255.769531 362.507812 255.234375 362.144531 254.375 362.25 C 253.722656 362.054688 253.371094 361.488281 252.925781 361.046875 C 250.132812 358.300781 247.484375 355.394531 244.277344 353.085938 C 242.457031 351.773438 240.550781 350.597656 238.316406 350.226562 C 236.375 349.90625 234.375 349.984375 232.441406 350.234375 C 229.261719 350.648438 226.21875 350.144531 223.207031 349.277344 C 221.78125 348.863281 220.378906 348.371094 219.003906 347.816406 C 216.480469 346.792969 213.898438 346.5625 211.234375 347.03125 C 208.257812 347.558594 205.261719 347.816406 202.242188 347.925781 C 197.535156 348.097656 192.824219 348.285156 188.125 348.605469 C 183.324219 348.933594 178.535156 349.390625 173.746094 349.871094 C 170.59375 350.1875 167.457031 350.667969 164.304688 351.019531 C 161.785156 351.300781 159.25 351.480469 156.726562 351.738281 C 154.253906 351.992188 151.789062 352.289062 149.320312 352.570312 C 146.117188 352.933594 142.910156 353.261719 139.710938 353.671875 C 135.640625 354.199219 131.558594 354.027344 127.480469 353.921875 C 124.632812 353.847656 121.792969 353.476562 118.957031 353.125 C 116.964844 352.878906 114.96875 352.664062 112.976562 352.410156 C 108.671875 351.859375 104.390625 351.183594 100.144531 350.3125 C 97.867188 349.84375 95.589844 349.371094 93.34375 348.730469 C 90.148438 347.820312 87.609375 345.917969 85.621094 343.386719 C 80.066406 336.324219 76.320312 328.382812 74.65625 319.527344 C 74.230469 317.246094 74.03125 314.925781 73.882812 312.597656 C 73.285156 303.167969 73.589844 293.734375 73.734375 284.308594 C 73.820312 278.90625 73.875 273.5 73.871094 268.101562 C 73.871094 264.503906 73.558594 260.90625 73.628906 257.304688 C 73.640625 256.808594 73.402344 254.003906 74.25 253.164062 C 76.457031 253.878906 78.757812 254.613281 81.054688 255.371094 C 90.898438 258.609375 100.742188 261.859375 110.589844 265.085938 C 112.695312 265.777344 114.824219 266.398438 116.945312 267.050781 C 117.363281 267.242188 117.777344 267.433594 118.140625 267.601562 C 118.40625 268.082031 118.152344 268.609375 118.480469 268.996094 C 118.371094 273.011719 118.667969 277.015625 118.929688 281.007812 C 119.257812 285.992188 119.554688 290.992188 120.386719 295.933594 C 120.566406 296.996094 120.933594 297.960938 121.449219 298.886719 C 118.574219 298.527344 115.699219 298.160156 112.828125 297.800781 C 109.847656 297.429688 106.867188 297.050781 103.886719 296.699219 C 103.53125 296.65625 103.144531 296.703125 102.792969 296.796875 C 102.464844 296.886719 102.304688 297.179688 102.292969 297.53125 C 102.28125 297.886719 102.429688 298.140625 102.777344 298.257812 C 103.027344 298.339844 103.28125 298.480469 103.535156 298.488281 C 105.386719 298.550781 107.183594 299.015625 109.019531 299.214844 C 111.164062 299.449219 113.304688 299.753906 115.445312 300.039062 C 118.160156 300.394531 120.871094 300.777344 123.589844 301.121094 C 126.042969 301.433594 128.5 301.761719 130.964844 301.976562 C 132.367188 302.101562 133.824219 302.347656 135.152344 301.566406 " fill-opacity="1" fill-rule="nonzero"/><path fill="#fab583" d="M 156.574219 69.113281 C 157.09375 70.71875 157.160156 72.101562 156.867188 73.550781 C 156.667969 74.53125 156.503906 75.519531 156.253906 76.492188 C 156.128906 76.992188 156.417969 77.320312 156.820312 77.507812 C 157.332031 77.75 157.613281 77.359375 157.832031 77 C 157.964844 76.785156 157.972656 76.496094 158.066406 76.25 C 158.839844 74.160156 158.714844 71.984375 158.671875 69.816406 C 158.640625 68.296875 158.199219 66.882812 157.382812 65.621094 C 156.480469 64.210938 155.230469 63.296875 153.457031 63.335938 C 152.878906 63.347656 152.191406 63.257812 152.050781 64.027344 C 151.898438 64.839844 152.585938 64.929688 153.152344 65.082031 C 153.355469 65.132812 153.558594 65.199219 153.765625 65.238281 C 154.910156 65.453125 155.511719 66.253906 156.089844 67.273438 C 155.378906 67.589844 154.734375 67.421875 154.128906 67.503906 C 153.585938 67.582031 153.246094 67.859375 153.265625 68.441406 C 153.289062 69.011719 153.703125 69.105469 154.15625 69.109375 C 154.941406 69.117188 155.730469 69.113281 156.574219 69.113281 Z M 254.152344 103.601562 C 255.480469 101.882812 256.972656 101.246094 258.871094 101.683594 C 259.28125 101.777344 259.675781 101.941406 260.078125 102.078125 C 260.628906 102.261719 261.179688 102.269531 261.4375 101.667969 C 261.703125 101.054688 261.242188 100.683594 260.789062 100.386719 C 260.523438 100.21875 260.226562 100.089844 259.925781 99.992188 C 256.996094 99.070312 254.589844 99.914062 252.679688 102.445312 C 251.785156 103.636719 251.152344 104.988281 250.609375 106.363281 C 250.222656 107.335938 249.917969 108.371094 250.132812 109.457031 C 250.226562 109.929688 250.550781 110.175781 251.042969 110.152344 C 251.507812 110.132812 251.699219 109.835938 251.6875 109.414062 C 251.664062 108.375 252.101562 107.453125 252.4375 106.519531 C 252.835938 105.410156 253.074219 105.289062 254.214844 105.542969 C 254.898438 105.695312 255.582031 105.679688 256.265625 105.710938 C 256.785156 105.734375 257.449219 105.820312 257.578125 105.144531 C 257.710938 104.433594 257.191406 104.148438 256.527344 104.050781 C 255.8125 103.949219 255.105469 103.785156 254.152344 103.601562 Z M 208.203125 121.566406 C 209.300781 121.566406 210.207031 121.617188 211.101562 121.550781 C 211.792969 121.5 212.308594 121.066406 212.398438 120.351562 C 212.488281 119.578125 211.941406 119.234375 211.285156 119.027344 C 210.828125 118.886719 210.367188 118.8125 209.882812 118.777344 C 207.964844 118.648438 206.066406 118.925781 204.191406 119.195312 C 200.300781 119.753906 196.589844 121.054688 192.90625 122.398438 C 191.816406 122.796875 190.761719 123.316406 189.957031 124.21875 C 189.511719 124.710938 189.390625 125.226562 189.792969 125.796875 C 190.230469 126.410156 190.773438 126.324219 191.328125 125.992188 C 193.667969 124.574219 196.273438 123.855469 198.878906 123.121094 C 201.996094 122.246094 205.144531 121.597656 208.203125 121.566406 Z M 228.335938 76.96875 C 229.765625 76.867188 231.394531 76.636719 233.007812 76.316406 C 236.421875 75.644531 239.847656 75.519531 243.289062 76.089844 C 243.5 76.125 243.707031 76.167969 243.917969 76.1875 C 244.636719 76.25 245.175781 75.992188 245.390625 75.269531 C 245.589844 74.597656 245.210938 74.019531 244.371094 73.726562 C 244.023438 73.605469 243.652344 73.542969 243.285156 73.488281 C 239.789062 72.96875 236.308594 73.078125 232.839844 73.738281 C 231.332031 74.023438 229.832031 74.382812 228.292969 74.480469 C 226.328125 74.605469 225.449219 73.867188 225.175781 71.914062 C 225.101562 71.390625 225.128906 70.855469 225.046875 70.332031 C 224.945312 69.683594 224.558594 69.25 223.867188 69.277344 C 223.253906 69.296875 222.949219 69.71875 222.816406 70.292969 C 221.984375 73.804688 224.554688 77.042969 228.335938 76.96875 Z M 186.640625 60.449219 C 185.742188 60.46875 185.015625 60.199219 184.269531 60.351562 C 183.648438 60.484375 183.195312 60.828125 183.164062 61.515625 C 183.132812 62.195312 183.496094 62.648438 184.140625 62.769531 C 184.863281 62.910156 185.605469 62.992188 186.34375 63.015625 C 188.269531 63.078125 190.113281 63.476562 191.9375 64.089844 C 194.273438 64.871094 196.371094 66.074219 198.390625 67.449219 C 199.53125 68.226562 200.699219 68.957031 202.09375 69.203125 C 204.542969 69.644531 207.117188 67.78125 207.457031 65.339844 C 207.539062 64.742188 207.367188 64.273438 206.8125 64.03125 C 206.242188 63.789062 205.765625 64.011719 205.4375 64.5 C 205.207031 64.851562 205.050781 65.253906 204.832031 65.617188 C 204.105469 66.832031 203.199219 67.132812 201.875 66.609375 C 200.925781 66.234375 200.125 65.628906 199.304688 65.046875 C 195.457031 62.328125 191.230469 60.664062 186.640625 60.449219 Z M 203.925781 90.207031 C 203.925781 89.476562 204.015625 88.789062 203.183594 88.5625 C 202.542969 88.386719 202.027344 88.765625 201.675781 89.644531 C 201.578125 89.890625 201.488281 90.140625 201.417969 90.394531 C 200.90625 92.257812 199.976562 93.886719 198.796875 95.421875 C 197.375 97.269531 195.859375 99.027344 194.324219 100.769531 C 192.527344 102.816406 192.40625 105.171875 194.144531 106.851562 C 196.023438 108.671875 198.335938 109.675781 200.902344 110.105469 C 201.265625 110.167969 201.636719 110.132812 201.992188 109.976562 C 202.527344 109.738281 202.847656 109.328125 202.871094 108.757812 C 202.894531 108.21875 202.519531 107.871094 202.0625 107.6875 C 201.625 107.507812 201.15625 107.378906 200.6875 107.320312 C 199.105469 107.121094 197.769531 106.390625 196.542969 105.445312 C 195.414062 104.574219 195.355469 103.941406 196.113281 102.738281 C 196.402344 102.285156 196.753906 101.898438 197.117188 101.515625 C 199.171875 99.363281 200.917969 96.96875 202.464844 94.441406 C 203.261719 93.132812 203.703125 91.644531 203.925781 90.207031 Z M 175.265625 101.5625 C 176.601562 101.660156 177.871094 101.476562 179.015625 100.644531 C 180.628906 99.476562 180.855469 97.609375 179.53125 96.113281 C 178.800781 95.289062 177.871094 94.816406 176.839844 94.507812 C 175.21875 94.03125 173.59375 93.644531 171.898438 93.441406 C 170.828125 93.308594 169.886719 93.5 168.992188 93.890625 C 167.339844 94.617188 166.851562 96.234375 167.644531 97.867188 C 168 98.601562 168.503906 99.179688 169.171875 99.652344 C 171 100.9375 172.972656 101.730469 175.265625 101.5625 Z M 229.976562 114.605469 C 230.707031 114.726562 231.550781 114.410156 232.386719 114.058594 C 233.121094 113.746094 233.617188 113.171875 233.777344 112.421875 C 234.113281 110.859375 233.734375 109.460938 232.488281 108.410156 C 230.761719 106.945312 228.734375 106.027344 226.566406 105.460938 C 225.089844 105.074219 223.601562 104.804688 222.136719 105.777344 C 220.941406 106.570312 220.609375 107.144531 221.039062 108.523438 C 222.03125 111.703125 226.152344 114.570312 229.976562 114.605469 Z M 183.644531 73.847656 C 183.53125 74.476562 183.074219 74.714844 182.769531 75.066406 C 180.972656 77.144531 179.71875 79.511719 178.953125 82.136719 C 178.515625 83.632812 178.425781 85.15625 178.722656 86.699219 C 179.488281 90.699219 183.269531 92.335938 186.710938 90.148438 C 187.941406 89.371094 188.925781 88.34375 189.695312 87.113281 C 192.019531 83.410156 192.484375 79.40625 191.609375 75.195312 C 191.351562 73.949219 190.628906 72.976562 189.558594 72.28125 C 187.484375 70.929688 185.234375 70.628906 182.859375 71.226562 C 181.652344 71.527344 180.605469 72.160156 179.6875 72.980469 C 178.957031 73.632812 178.851562 74.367188 179.324219 74.925781 C 179.773438 75.453125 180.394531 75.480469 181.175781 74.980469 C 181.484375 74.785156 181.761719 74.527344 182.082031 74.339844 C 182.523438 74.078125 182.941406 73.722656 183.644531 73.847656 Z M 228.277344 84.796875 C 229.144531 85.046875 229.714844 85.660156 230.191406 86.378906 C 230.394531 86.6875 230.5625 87.027344 230.796875 87.308594 C 231.285156 87.902344 231.953125 88.054688 232.476562 87.703125 C 233.039062 87.324219 233.1875 86.769531 232.933594 86.167969 C 232.316406 84.714844 231.351562 83.5625 229.972656 82.746094 C 226.144531 80.488281 221.675781 81.0625 219.175781 84.238281 C 218.09375 85.609375 217.152344 87.101562 216.449219 88.703125 C 215.441406 91.011719 215.179688 93.40625 216.042969 95.824219 C 217.429688 99.710938 221.152344 100.804688 224.46875 98.320312 C 225.640625 97.449219 226.503906 96.320312 227.140625 95.015625 C 228.695312 91.832031 228.992188 88.539062 227.984375 85.132812 C 228.082031 85.023438 228.179688 84.910156 228.277344 84.796875 Z M 264.121094 94.078125 C 266.703125 95.511719 267.359375 97.859375 266.746094 100.585938 C 266.179688 103.089844 264.894531 105.195312 263.367188 107.175781 C 261.84375 109.152344 260.0625 110.902344 258.296875 112.660156 C 257.304688 113.644531 256.179688 114.429688 255.007812 115.152344 C 253.042969 116.363281 250.917969 116.507812 248.71875 116.007812 C 248.105469 115.867188 247.5 115.699219 246.8125 115.523438 C 245.492188 117.800781 244.214844 120.050781 242.886719 122.277344 C 240.03125 127.066406 236.828125 131.59375 232.839844 135.539062 C 230.058594 138.289062 226.824219 140.382812 223.496094 142.367188 C 222.585938 142.910156 221.636719 143.378906 220.703125 143.882812 C 220.398438 143.730469 220.269531 143.429688 220.09375 143.167969 C 218.199219 140.339844 215.707031 138.402344 212.34375 137.492188 C 208.363281 136.414062 204.378906 135.359375 200.375 134.382812 C 195.234375 133.125 189.980469 132.515625 184.804688 131.476562 C 181.542969 130.824219 178.25 130.347656 174.949219 129.976562 C 172.847656 129.742188 170.75 129.417969 168.621094 129.5625 C 166.523438 129.707031 165.660156 130.628906 165.667969 132.683594 C 165.671875 133.667969 165.984375 134.550781 166.367188 135.429688 C 166.578125 135.910156 166.933594 136.332031 166.972656 136.882812 C 165.886719 136.46875 165.382812 135.457031 165.109375 134.535156 C 164.675781 133.0625 163.785156 131.949219 162.882812 130.808594 C 162.332031 130.113281 161.648438 129.53125 161.183594 128.761719 C 161.015625 128.488281 160.730469 128.324219 160.386719 128.339844 C 159.289062 125.417969 158.210938 122.488281 157.285156 119.511719 C 156.015625 115.414062 155.078125 111.253906 154.480469 107 C 154.121094 104.433594 153.945312 101.855469 153.648438 99.285156 C 153.355469 96.75 153.808594 94.222656 154.066406 91.699219 C 154.207031 90.292969 154.390625 88.890625 154.566406 87.398438 C 153.285156 87.175781 152.214844 86.78125 151.171875 86.277344 C 147.914062 84.71875 146.242188 82.019531 145.699219 78.589844 C 144.96875 74.003906 144.945312 69.414062 146.277344 64.914062 C 146.941406 62.667969 147.84375 60.527344 149.910156 59.117188 C 151.199219 58.238281 152.574219 57.859375 154.113281 58.125 C 156.425781 59.058594 157.84375 60.847656 158.796875 63.070312 C 159.058594 63.683594 159.394531 64.1875 160.101562 64.339844 C 160.65625 63.894531 160.503906 63.03125 161.136719 62.546875 C 161.460938 62.59375 161.820312 62.644531 162.179688 62.703125 C 164.703125 63.109375 166.765625 62.28125 168.433594 60.378906 C 169.457031 59.21875 170.347656 57.96875 171.023438 56.582031 C 171.929688 54.722656 172.789062 52.84375 173.664062 50.972656 C 174.34375 49.53125 175.066406 48.113281 176.046875 46.851562 C 179.414062 42.53125 183.8125 40.835938 189.226562 41.621094 C 191.308594 41.925781 193.1875 42.777344 195.101562 43.542969 C 195.683594 43.773438 196.15625 43.820312 196.757812 43.585938 C 199.652344 42.457031 202.671875 42.363281 205.6875 42.851562 C 210.324219 43.605469 214.308594 45.710938 217.65625 49.007812 C 219.960938 51.28125 222.261719 53.546875 224.910156 55.4375 C 230.164062 59.183594 235.863281 62.109375 241.800781 64.574219 C 248.375 67.304688 255.070312 69.648438 262.332031 69.636719 C 263.140625 70.519531 263.335938 71.535156 263.273438 72.710938 C 263.105469 75.84375 262.410156 78.898438 262.023438 82 C 261.894531 83.007812 261.554688 83.953125 261.160156 84.882812 C 259.894531 87.855469 258.636719 90.832031 257.390625 93.8125 C 257.242188 94.164062 256.851562 94.523438 257.332031 95.003906 C 259.496094 94.128906 261.738281 93.542969 264.121094 94.078125 " fill-opacity="1" fill-rule="nonzero"/><path fill="#261916" d="M 264.121094 94.078125 C 261.738281 93.542969 259.496094 94.128906 257.332031 95.003906 C 256.851562 94.523438 257.242188 94.164062 257.390625 93.8125 C 258.636719 90.832031 259.894531 87.855469 261.160156 84.882812 C 261.554688 83.953125 261.894531 83.007812 262.023438 82 C 262.410156 78.898438 263.105469 75.84375 263.273438 72.710938 C 263.335938 71.535156 263.140625 70.519531 262.332031 69.636719 C 255.070312 69.648438 248.375 67.304688 241.800781 64.574219 C 235.863281 62.109375 230.164062 59.183594 224.910156 55.4375 C 222.261719 53.546875 219.960938 51.28125 217.65625 49.007812 C 214.308594 45.710938 210.324219 43.605469 205.6875 42.851562 C 202.671875 42.363281 199.652344 42.457031 196.757812 43.585938 C 196.15625 43.820312 195.683594 43.773438 195.101562 43.542969 C 193.1875 42.777344 191.308594 41.925781 189.226562 41.621094 C 183.8125 40.835938 179.414062 42.53125 176.046875 46.851562 C 175.066406 48.113281 174.34375 49.53125 173.664062 50.972656 C 172.789062 52.84375 171.929688 54.722656 171.023438 56.582031 C 170.347656 57.96875 169.457031 59.21875 168.433594 60.378906 C 166.765625 62.28125 164.703125 63.109375 162.179688 62.703125 C 161.820312 62.644531 161.460938 62.59375 161.136719 62.546875 C 160.503906 63.03125 160.65625 63.894531 160.101562 64.339844 C 159.394531 64.1875 159.058594 63.683594 158.796875 63.070312 C 157.84375 60.847656 156.425781 59.058594 154.113281 58.125 C 154.203125 53.886719 154.046875 49.640625 154.527344 45.410156 C 155.875 33.535156 160.246094 23.078125 168.953125 14.675781 C 172.859375 10.90625 177.347656 8.035156 182.597656 6.457031 C 183.359375 6.230469 184.140625 5.886719 184.710938 6.746094 C 194.558594 1.570312 205.1875 0.554688 215.960938 0.261719 C 225.535156 -0.00390625 234.75 1.9375 243.722656 5.070312 C 249.90625 7.226562 255.351562 10.707031 260.28125 14.996094 C 261.5625 16.113281 262.804688 17.277344 264.125 18.34375 C 270.417969 23.425781 277.667969 26.386719 285.570312 27.851562 C 287.765625 28.257812 290 28.3125 292.234375 28.175781 C 293.558594 28.09375 294.886719 28.054688 296.214844 28.019531 C 296.902344 28.003906 297.589844 28.070312 298.257812 28.277344 C 299.757812 28.742188 300.328125 29.582031 300.117188 31.140625 C 299.921875 32.539062 299.242188 33.75 298.496094 34.910156 C 296.164062 38.53125 293.558594 41.941406 290.679688 45.144531 C 290.253906 45.621094 289.820312 46.085938 289.378906 46.542969 C 286.140625 49.902344 282.558594 52.765625 278.148438 54.203125 C 277.800781 54.621094 277.890625 55.007812 277.882812 55.367188 C 277.847656 57.074219 277.628906 58.765625 277.144531 60.394531 C 275.496094 65.875 274.191406 71.457031 272.355469 76.882812 C 271.589844 79.144531 270.679688 81.347656 269.578125 83.472656 C 267.753906 87.003906 265.941406 90.542969 264.121094 94.078125 " fill-opacity="1" fill-rule="nonzero"/><g clip-path="url(#f8d39adcba)"><path fill="#828442" d="M 292.800781 256.726562 C 290.976562 256.960938 289.210938 257.464844 287.476562 258.058594 C 281.988281 259.929688 276.511719 261.835938 271.027344 263.71875 C 270.128906 264.027344 269.214844 264.289062 268.242188 264.191406 C 267.769531 263.371094 267.527344 262.457031 267.214844 261.566406 C 266.925781 260.75 266.519531 260.011719 265.464844 260.050781 C 263.140625 255.46875 260.863281 250.863281 258.476562 246.320312 C 254.1875 238.164062 249.800781 230.058594 245.511719 221.898438 C 242.679688 216.507812 239.96875 211.050781 237.152344 205.648438 C 235.875 203.195312 234.816406 200.660156 233.941406 198.046875 C 231.664062 191.28125 229.355469 184.519531 228.222656 177.4375 C 227.914062 175.507812 227.746094 173.558594 227.511719 171.621094 C 232.636719 174.132812 238.027344 175.820312 243.640625 176.816406 C 246.886719 177.386719 250.160156 177.683594 253.441406 177.878906 C 258.152344 178.164062 262.867188 178.414062 267.5625 178.910156 C 272.378906 179.414062 276.765625 180.921875 280.355469 184.328125 C 282.539062 186.398438 284.230469 188.8125 285.511719 191.527344 C 288.28125 197.386719 290.554688 203.429688 292.335938 209.65625 C 295.890625 222.085938 299.378906 234.53125 303.109375 246.90625 C 303.597656 248.53125 303.964844 250.179688 304.214844 252.046875 C 300.453125 253.691406 296.632812 255.222656 292.800781 256.726562 " fill-opacity="1" fill-rule="nonzero"/></g><path fill="#828442" d="M 139.875 160.453125 C 141.800781 160.140625 143.722656 159.824219 145.648438 159.511719 C 146.480469 159.378906 147.316406 159.253906 148.148438 159.125 C 149.484375 159.238281 150.75 158.742188 152.027344 158.769531 C 152.902344 157.214844 153.253906 157.15625 154.253906 158.488281 C 154.925781 159.378906 155.761719 160.121094 156.449219 160.992188 C 161.804688 167.753906 167.761719 173.996094 173.289062 180.613281 C 176.40625 184.34375 179.683594 187.941406 182.890625 191.597656 C 182.890625 192.0625 182.648438 192.410156 182.292969 192.664062 C 180.191406 194.171875 178.289062 195.929688 176.101562 197.328125 C 174.144531 198.582031 172.222656 199.882812 170.394531 201.328125 C 168.535156 202.800781 166.5625 204.128906 164.675781 205.566406 C 164.007812 206.078125 163.527344 205.953125 163.042969 205.386719 C 162.839844 205.144531 162.65625 204.886719 162.46875 204.632812 C 161.179688 202.882812 160.175781 200.949219 159.207031 199.019531 C 155.414062 191.449219 151.695312 183.84375 147.945312 176.25 C 147.828125 176.011719 147.710938 175.777344 147.605469 175.53125 C 146.109375 172.082031 144.378906 168.753906 142.585938 165.449219 C 141.679688 163.789062 140.578125 162.226562 139.875 160.453125 " fill-opacity="1" fill-rule="nonzero"/><path fill="#fab685" d="M 182.890625 191.597656 C 179.683594 187.941406 176.40625 184.34375 173.289062 180.613281 C 167.761719 173.996094 161.804688 167.753906 156.449219 160.992188 C 155.761719 160.121094 154.925781 159.378906 154.253906 158.488281 C 153.253906 157.15625 152.902344 157.214844 152.027344 158.769531 C 150.75 158.742188 149.484375 159.238281 148.148438 159.125 C 149.652344 158.148438 151.226562 157.292969 152.839844 156.515625 C 156.554688 154.722656 158.648438 151.773438 159.292969 147.726562 C 159.484375 146.535156 159.789062 145.359375 160.042969 144.179688 C 160.136719 144.21875 160.292969 144.230469 160.324219 144.300781 C 161.023438 145.851562 162.3125 146.609375 163.863281 147.167969 C 167.132812 148.347656 170.480469 149.210938 173.871094 149.933594 C 174.398438 150.046875 174.898438 150.140625 175.257812 150.582031 C 174.847656 151.132812 174.414062 151.667969 174.027344 152.234375 C 172.667969 154.25 172.894531 155.492188 174.878906 156.914062 C 175.945312 157.679688 177.054688 158.367188 178.445312 158.910156 C 177.652344 159.742188 176.933594 160.429688 176.292969 161.183594 C 175.117188 162.5625 175.289062 164.109375 176.761719 165.15625 C 178.777344 166.589844 180.953125 167.621094 183.527344 167.46875 C 183.890625 167.445312 184.269531 167.398438 184.640625 167.609375 C 185.054688 168.304688 185.09375 169.183594 185.726562 169.832031 C 187.460938 171.617188 189.46875 172.300781 191.917969 171.722656 C 192.550781 171.570312 193.171875 171.171875 194.074219 171.457031 C 193.605469 174.550781 193.761719 177.660156 193.691406 180.761719 C 190.574219 183.476562 188.195312 186.789062 186.023438 190.265625 C 184.738281 190.140625 183.894531 191.058594 182.890625 191.597656 " fill-opacity="1" fill-rule="nonzero"/><path fill="#757633" d="M 182.890625 191.597656 C 183.894531 191.058594 184.738281 190.140625 186.023438 190.265625 C 186.273438 190.855469 186.902344 191.261719 186.492188 192.121094 C 185.898438 193.355469 186.007812 193.375 187.152344 194.257812 C 190.15625 196.570312 193.179688 198.851562 196.171875 201.179688 C 198.082031 202.667969 199.855469 204.328125 201.878906 205.667969 C 203.230469 206.566406 204.0625 206.480469 205.277344 205.378906 C 205.738281 204.964844 206.082031 204.367188 206.8125 204.34375 C 207.363281 205.136719 207.960938 205.90625 208.105469 206.902344 C 207.496094 206.878906 207.199219 207.371094 206.78125 207.679688 C 204.730469 209.195312 203.132812 209.6875 200.714844 208.050781 C 199.140625 206.984375 197.683594 205.765625 196.210938 204.566406 C 193.761719 202.570312 191.234375 200.660156 188.765625 198.683594 C 187.6875 197.8125 186.6875 196.789062 185.441406 196.207031 C 185.074219 196.445312 185.121094 196.730469 185.117188 196.984375 C 185.007812 202.796875 185.113281 208.613281 184.871094 214.433594 C 184.65625 219.597656 184.664062 224.785156 185.046875 229.976562 C 185.445312 235.351562 184.890625 240.761719 185.394531 246.152344 C 185.691406 249.304688 185.488281 252.484375 185.652344 255.652344 C 185.855469 259.550781 186.039062 263.464844 186.046875 267.375 C 186.054688 270.496094 186.609375 273.589844 186.390625 276.714844 C 186.382812 276.820312 186.382812 276.933594 186.410156 277.03125 C 187.074219 279.515625 186.554688 282.070312 186.957031 284.59375 C 187.335938 286.972656 187.078125 289.429688 187.265625 291.863281 C 187.539062 295.4375 187.363281 299.042969 187.625 302.632812 C 187.78125 304.734375 187.972656 306.824219 188.289062 308.90625 C 187.320312 308.824219 186.371094 308.640625 185.441406 308.351562 C 184.84375 306.082031 185.359375 303.714844 184.832031 301.429688 C 184.648438 300.621094 184.765625 299.738281 184.796875 298.894531 C 184.9375 294.867188 184.4375 290.867188 184.386719 286.847656 C 184.363281 284.753906 184.4375 282.59375 184.089844 280.535156 C 183.671875 278.066406 184.207031 275.554688 183.535156 273.128906 C 183.507812 273.03125 183.515625 272.917969 183.523438 272.8125 C 183.75 268.785156 183.273438 264.78125 183.132812 260.765625 C 183 256.910156 183.128906 253.035156 182.804688 249.203125 C 182.542969 246.074219 182.722656 242.964844 182.554688 239.851562 C 182.003906 229.746094 182.210938 219.628906 182.308594 209.519531 C 182.339844 205.878906 182.539062 202.230469 182.5625 198.582031 C 182.570312 197.710938 183.183594 196.871094 182.671875 195.867188 C 181.777344 196.058594 181.378906 196.902344 180.707031 197.351562 C 178.164062 199.058594 175.636719 200.789062 173.144531 202.570312 C 170.914062 204.167969 168.742188 205.847656 166.546875 207.488281 C 165.949219 207.9375 165.304688 208.335938 164.570312 208.46875 C 163.09375 208.730469 161.839844 208.3125 160.917969 207.078125 C 159.9375 205.765625 159.070312 204.386719 158.273438 202.953125 C 156.550781 199.851562 155 196.667969 153.503906 193.453125 C 151.917969 190.042969 150.125 186.726562 148.480469 183.34375 C 145.910156 178.0625 143.398438 172.75 140.828125 167.464844 C 139.996094 165.753906 139.046875 164.097656 138.15625 162.417969 C 137.886719 161.902344 137.582031 161.394531 137.648438 160.773438 C 138.292969 159.96875 139.042969 159.917969 139.875 160.453125 C 140.578125 162.226562 141.679688 163.789062 142.585938 165.449219 C 144.378906 168.753906 146.109375 172.082031 147.605469 175.53125 C 147.710938 175.777344 147.828125 176.011719 147.945312 176.25 C 151.695312 183.84375 155.414062 191.449219 159.207031 199.019531 C 160.175781 200.949219 161.179688 202.882812 162.46875 204.632812 C 162.65625 204.886719 162.839844 205.144531 163.042969 205.386719 C 163.527344 205.953125 164.007812 206.078125 164.675781 205.566406 C 166.5625 204.128906 168.535156 202.800781 170.394531 201.328125 C 172.222656 199.882812 174.144531 198.582031 176.101562 197.328125 C 178.289062 195.929688 180.191406 194.171875 182.292969 192.664062 C 182.648438 192.410156 182.890625 192.0625 182.890625 191.597656 " fill-opacity="1" fill-rule="nonzero"/><path fill="#da654b" d="M 193.691406 180.761719 C 193.761719 177.660156 193.605469 174.550781 194.074219 171.457031 C 193.171875 171.171875 192.550781 171.570312 191.917969 171.722656 C 189.46875 172.300781 187.460938 171.617188 185.726562 169.832031 C 185.09375 169.183594 185.054688 168.304688 184.640625 167.609375 C 184.269531 167.398438 183.890625 167.445312 183.527344 167.46875 C 180.953125 167.621094 178.777344 166.589844 176.761719 165.15625 C 175.289062 164.109375 175.117188 162.5625 176.292969 161.183594 C 176.933594 160.429688 177.652344 159.742188 178.445312 158.910156 C 177.054688 158.367188 175.945312 157.679688 174.878906 156.914062 C 172.894531 155.492188 172.667969 154.25 174.027344 152.234375 C 174.414062 151.667969 174.847656 151.132812 175.257812 150.582031 C 175.78125 149.996094 176.289062 149.390625 176.839844 148.828125 C 178.210938 147.429688 179.605469 146.054688 180.980469 144.660156 C 181.222656 144.417969 181.609375 144.207031 181.378906 143.683594 C 178.941406 143.386719 176.601562 142.59375 174.253906 141.820312 C 171.515625 140.917969 169.351562 139.183594 167.339844 137.210938 C 167.210938 137.097656 167.082031 136.988281 166.953125 136.875 L 166.972656 136.882812 C 166.933594 136.332031 166.578125 135.910156 166.367188 135.429688 C 165.984375 134.550781 165.671875 133.667969 165.667969 132.683594 C 165.660156 130.628906 166.523438 129.707031 168.621094 129.5625 C 170.75 129.417969 172.847656 129.742188 174.949219 129.976562 C 178.25 130.347656 181.542969 130.824219 184.804688 131.476562 C 189.980469 132.515625 195.234375 133.125 200.375 134.382812 C 204.378906 135.359375 208.363281 136.414062 212.34375 137.492188 C 215.707031 138.402344 218.199219 140.339844 220.09375 143.167969 C 220.269531 143.429688 220.398438 143.730469 220.703125 143.882812 C 221.777344 145.679688 222.832031 147.492188 223.9375 149.273438 C 224.6875 150.480469 225.296875 151.753906 225.933594 153.019531 C 226.261719 153.664062 226.390625 154.296875 226.125 154.984375 C 225.058594 155.285156 224.445312 154.832031 224.011719 153.859375 C 222.644531 150.800781 220.761719 148.027344 218.992188 145.203125 C 217.515625 142.835938 215.726562 140.722656 212.925781 139.847656 C 210.652344 139.140625 208.355469 138.496094 206.050781 137.890625 C 199.140625 136.082031 192.117188 134.832031 185.078125 133.648438 C 182.109375 133.148438 179.148438 132.597656 176.164062 132.1875 C 174.070312 131.902344 171.960938 131.71875 169.859375 131.511719 C 169.105469 131.4375 168.375 131.535156 167.730469 132.152344 C 167.78125 134.683594 169.152344 136.464844 171.140625 137.859375 C 173.65625 139.621094 176.519531 140.574219 179.460938 141.316406 C 180.128906 141.480469 180.816406 141.585938 181.472656 141.785156 C 182.597656 142.121094 183.632812 142.054688 184.667969 141.417969 C 186.425781 140.335938 188.308594 140.328125 190.335938 140.628906 C 194.789062 141.296875 199.191406 142.167969 203.550781 143.257812 C 204.679688 143.542969 205.777344 143.9375 206.882812 144.308594 C 207.230469 144.421875 207.585938 144.5625 207.828125 144.871094 C 208.3125 145.488281 207.992188 146.316406 207.210938 146.433594 C 206.777344 146.496094 206.382812 146.347656 205.976562 146.207031 C 201.148438 144.558594 196.148438 143.683594 191.128906 142.898438 C 190.453125 142.789062 189.78125 142.671875 189.09375 142.589844 C 187.003906 142.339844 185.367188 143.195312 183.949219 144.582031 C 181.335938 147.144531 178.699219 149.6875 176.359375 152.503906 C 175.070312 154.058594 174.449219 154.335938 176.84375 155.886719 C 177.332031 156.203125 177.832031 156.511719 178.363281 156.742188 C 179.320312 157.164062 180.160156 157.097656 180.925781 156.222656 C 183.09375 153.753906 185.445312 151.449219 187.6875 149.050781 C 190.015625 146.554688 192.78125 146.089844 195.957031 146.601562 C 201.402344 147.480469 206.691406 148.992188 212.019531 150.351562 C 212.738281 150.535156 213.460938 150.691406 214.183594 150.851562 C 214.386719 150.898438 214.613281 150.90625 214.800781 150.988281 C 215.378906 151.246094 215.835938 151.660156 215.632812 152.335938 C 215.429688 153 214.855469 153.144531 214.214844 152.992188 C 212.773438 152.65625 211.324219 152.347656 209.898438 151.957031 C 205.40625 150.738281 200.894531 149.578125 196.3125 148.753906 C 194.953125 148.511719 193.558594 148.582031 192.179688 148.660156 C 191.113281 148.726562 190.3125 149.425781 189.589844 150.109375 C 186.929688 152.625 184.539062 155.390625 182.085938 158.101562 C 180.949219 159.359375 179.726562 160.539062 178.546875 161.761719 C 177.433594 162.921875 177.492188 163.289062 178.882812 164.171875 C 180.644531 165.292969 182.5625 165.777344 184.648438 165.527344 C 185.554688 165.417969 186.425781 165.21875 187.019531 164.425781 C 188.578125 162.335938 190.605469 160.671875 192.265625 158.671875 C 193.308594 157.414062 194.78125 156.980469 196.378906 156.9375 C 199.839844 156.851562 203.234375 157.394531 206.621094 158.003906 C 208.234375 158.292969 209.84375 158.59375 211.457031 158.859375 C 211.941406 158.941406 212.394531 159.074219 212.792969 159.335938 C 213.210938 159.609375 213.550781 159.976562 213.34375 160.527344 C 213.171875 160.988281 212.753906 161.144531 212.304688 161.085938 C 211.207031 160.941406 210.105469 160.800781 209.019531 160.582031 C 204.863281 159.753906 200.703125 159.011719 196.433594 159.101562 C 195.285156 159.125 194.433594 159.457031 193.636719 160.292969 C 191.554688 162.480469 189.46875 164.664062 187.578125 167.019531 C 186.835938 167.953125 186.886719 168.25 187.808594 168.945312 C 189.277344 170.054688 190.882812 169.933594 192.480469 169.335938 C 193.886719 168.816406 195.109375 167.953125 196.238281 166.984375 C 198.007812 165.476562 199.949219 164.71875 202.351562 164.871094 C 205.042969 165.039062 207.734375 165.210938 210.414062 165.527344 C 211.085938 165.609375 211.574219 165.847656 211.5 166.59375 C 211.425781 167.359375 210.804688 167.542969 210.203125 167.40625 C 207.539062 166.808594 204.808594 167.347656 202.125 166.890625 C 200.871094 166.679688 199.597656 167 198.539062 167.859375 C 197.757812 168.488281 196.941406 169.082031 196.179688 169.660156 C 195.863281 171.726562 196.007812 173.777344 195.714844 175.8125 C 195.511719 177.214844 195.628906 178.667969 195.628906 180.101562 C 195.628906 180.816406 195.457031 181.367188 194.625 181.445312 C 194.316406 181.21875 194.003906 180.988281 193.691406 180.761719 " fill-opacity="1" fill-rule="nonzero"/><g clip-path="url(#cc61b99424)"><path fill="#da684c" d="M 275.015625 355.011719 C 274.867188 355.457031 275.007812 355.742188 275.167969 356.023438 C 275.851562 357.214844 276.496094 358.429688 277.222656 359.597656 C 279.351562 363.011719 281.773438 366.21875 284.140625 369.46875 C 285.054688 370.722656 285.933594 371.011719 287.355469 370.609375 C 289.539062 369.992188 289.675781 369.75 288.492188 367.910156 C 286.222656 364.402344 283.820312 360.976562 281.835938 357.289062 C 281.238281 356.171875 280.585938 355.082031 279.945312 353.984375 C 279.699219 353.5625 279.398438 353.109375 278.824219 353.351562 C 277.527344 353.898438 276.148438 354.285156 275.015625 355.011719 Z M 283.589844 372.398438 C 283.289062 371.359375 282.6875 370.617188 282.105469 369.875 C 279.957031 367.125 277.882812 364.335938 276.039062 361.363281 C 275.058594 359.789062 274.226562 358.136719 273.246094 356.566406 C 272.929688 356.054688 272.628906 355.777344 271.988281 355.925781 C 270.3125 356.3125 268.640625 356.234375 266.957031 355.941406 C 265.886719 355.757812 264.792969 355.714844 263.71875 355.609375 C 263.640625 355.984375 263.777344 356.21875 263.9375 356.421875 C 264.890625 357.625 265.84375 358.820312 266.8125 360.007812 C 269.019531 362.707031 271.328125 365.320312 273.652344 367.917969 C 274.453125 368.8125 275.53125 369.574219 275.929688 370.730469 C 276.257812 371.679688 276.945312 372.019531 277.703125 372.382812 C 278.472656 372.75 279.308594 372.996094 280.140625 373.027344 C 281.257812 373.070312 282.476562 373.398438 283.589844 372.398438 Z M 254.375 362.25 C 255.234375 362.144531 255.769531 362.507812 256.394531 363.152344 C 257.863281 364.671875 259.621094 365.878906 261.363281 367.085938 C 262.929688 368.167969 264.542969 369.1875 266.117188 370.265625 C 267.625 371.300781 269.253906 371.996094 271.070312 372.28125 C 272.125 372.449219 273.035156 372.226562 273.972656 371.660156 C 273.640625 370.621094 272.828125 369.964844 272.195312 369.242188 C 269.960938 366.699219 267.664062 364.207031 265.546875 361.5625 C 263.925781 359.542969 262.320312 357.507812 260.726562 355.464844 C 260.324219 354.953125 259.851562 354.605469 259.246094 354.339844 C 256.683594 353.199219 254.171875 351.941406 251.769531 350.480469 C 249.167969 348.902344 247.277344 346.632812 245.679688 344.105469 C 243.617188 340.839844 241.539062 337.578125 239.675781 334.1875 C 237.628906 330.460938 236.070312 326.535156 234.8125 322.484375 C 234.578125 321.726562 234.371094 320.960938 234.148438 320.199219 C 234.042969 320.101562 233.9375 320 233.832031 319.902344 L 233.839844 319.921875 C 233.976562 318.894531 233.597656 317.957031 233.335938 317 C 233.148438 316.316406 233.160156 315.753906 233.890625 315.414062 C 234.835938 315.558594 234.933594 316.359375 235.148438 317.054688 C 235.964844 319.683594 236.699219 322.332031 237.660156 324.914062 C 239.253906 329.199219 241.257812 333.277344 243.65625 337.164062 C 245.015625 339.375 246.449219 341.539062 247.820312 343.742188 C 249.304688 346.128906 251.242188 348.050781 253.71875 349.378906 C 255.773438 350.480469 257.847656 351.570312 259.980469 352.503906 C 262.230469 353.488281 264.65625 353.816406 267.097656 353.980469 C 268.980469 354.105469 270.875 354.53125 272.730469 353.703125 C 274.421875 352.945312 276.15625 352.289062 277.859375 351.5625 C 280.25 350.542969 282.617188 349.476562 285.011719 348.476562 C 286.359375 347.910156 286.753906 348.148438 287.109375 349.570312 C 285.566406 350.96875 283.648438 351.796875 281.9375 352.816406 C 281.707031 353.359375 282.050781 353.6875 282.230469 354.050781 C 283.582031 356.769531 285.40625 359.183594 287.144531 361.648438 C 288.671875 363.816406 290.140625 366 291.023438 368.539062 C 291.550781 370.058594 291.363281 370.75 289.957031 371.550781 C 289.636719 371.734375 289.300781 371.90625 288.953125 372.03125 C 287.945312 372.394531 286.726562 372.359375 286.171875 373.554688 C 284.175781 374.425781 282.191406 375.34375 279.914062 374.859375 C 278.722656 374.601562 277.519531 374.355469 276.453125 373.738281 C 275.800781 373.359375 275.21875 373.300781 274.515625 373.628906 C 272.578125 374.535156 270.605469 374.382812 268.636719 373.6875 C 267.324219 373.230469 266.121094 372.570312 264.953125 371.832031 C 261.726562 369.789062 258.652344 367.523438 255.765625 365.027344 C 254.949219 364.320312 253.960938 363.613281 254.375 362.25 " fill-opacity="1" fill-rule="nonzero"/></g><path fill="#f48469" d="M 167.339844 137.210938 C 169.351562 139.183594 171.515625 140.917969 174.253906 141.820312 C 176.601562 142.59375 178.941406 143.386719 181.378906 143.683594 C 181.609375 144.207031 181.222656 144.417969 180.980469 144.660156 C 179.605469 146.054688 178.210938 147.429688 176.839844 148.828125 C 176.289062 149.390625 175.78125 149.996094 175.257812 150.582031 C 174.898438 150.140625 174.398438 150.046875 173.871094 149.933594 C 170.480469 149.210938 167.132812 148.347656 163.863281 147.167969 C 162.3125 146.609375 161.023438 145.851562 160.324219 144.300781 C 160.292969 144.230469 160.136719 144.21875 160.042969 144.179688 C 160.210938 140.429688 160.394531 136.675781 160.546875 132.925781 C 160.609375 131.394531 160.5625 129.863281 160.382812 128.339844 C 160.730469 128.324219 161.015625 128.488281 161.183594 128.761719 C 161.648438 129.53125 162.332031 130.113281 162.882812 130.808594 C 163.785156 131.949219 164.675781 133.0625 165.109375 134.535156 C 165.382812 135.457031 165.886719 136.46875 166.972656 136.882812 C 166.972656 136.882812 166.953125 136.875 166.953125 136.875 C 167.019531 137.058594 167.152344 137.164062 167.339844 137.210938 " fill-opacity="1" fill-rule="nonzero"/><path fill="#757633" d="M 118.480469 268.996094 C 118.152344 268.609375 118.40625 268.082031 118.140625 267.601562 C 117.777344 267.433594 117.363281 267.242188 116.945312 267.050781 C 116.4375 255.789062 116.691406 244.515625 116.605469 233.246094 C 116.589844 231.183594 117.113281 229.164062 116.96875 227.089844 C 116.914062 226.347656 117.621094 225.757812 118.265625 225.789062 C 118.859375 225.820312 119.414062 226.367188 119.476562 227.035156 C 119.519531 227.453125 119.492188 227.882812 119.492188 228.304688 C 119.492188 237.730469 119.375 247.160156 119.550781 256.585938 C 119.621094 260.222656 119.804688 263.867188 119.804688 267.507812 C 119.804688 268.722656 119.769531 268.722656 118.480469 268.996094 " fill-opacity="1" fill-rule="nonzero"/><path fill="#d8664b" d="M 135.152344 301.566406 C 133.824219 302.347656 132.367188 302.101562 130.964844 301.976562 C 128.5 301.761719 126.042969 301.433594 123.589844 301.121094 C 120.871094 300.777344 118.160156 300.394531 115.445312 300.039062 C 113.304688 299.753906 111.164062 299.449219 109.019531 299.214844 C 107.183594 299.015625 105.386719 298.550781 103.535156 298.488281 C 103.28125 298.480469 103.027344 298.339844 102.777344 298.257812 C 102.429688 298.140625 102.28125 297.886719 102.292969 297.53125 C 102.304688 297.179688 102.464844 296.886719 102.792969 296.796875 C 103.144531 296.703125 103.53125 296.65625 103.886719 296.699219 C 106.867188 297.050781 109.847656 297.429688 112.828125 297.800781 C 115.699219 298.160156 118.574219 298.527344 121.449219 298.886719 C 122.644531 299.386719 123.960938 299.367188 125.191406 299.445312 C 128.035156 299.628906 130.839844 300.273438 133.710938 300.171875 C 134.847656 300.132812 134.863281 300.222656 135.152344 301.566406 " fill-opacity="1" fill-rule="nonzero"/><path fill="#828442" d="M 233.890625 315.414062 C 233.160156 315.753906 233.148438 316.316406 233.335938 317 C 233.597656 317.957031 233.976562 318.894531 233.839844 319.921875 C 232.121094 318.992188 230.386719 318.089844 228.6875 317.128906 C 224.71875 314.886719 220.4375 313.835938 215.90625 313.832031 C 212.917969 313.828125 210.007812 313.210938 207.082031 312.789062 C 201.316406 311.957031 195.621094 310.746094 189.953125 309.394531 C 189.390625 309.261719 188.84375 309.070312 188.289062 308.90625 C 187.972656 306.824219 187.78125 304.734375 187.625 302.632812 C 187.363281 299.042969 187.539062 295.4375 187.265625 291.863281 C 187.078125 289.429688 187.335938 286.972656 186.957031 284.59375 C 186.554688 282.070312 187.074219 279.515625 186.410156 277.03125 C 186.382812 276.933594 186.382812 276.820312 186.390625 276.714844 C 186.609375 273.589844 186.054688 270.496094 186.046875 267.375 C 186.039062 263.464844 185.855469 259.550781 185.652344 255.652344 C 185.488281 252.484375 185.691406 249.304688 185.394531 246.152344 C 184.890625 240.761719 185.445312 235.351562 185.046875 229.976562 C 184.664062 224.785156 184.65625 219.597656 184.871094 214.433594 C 185.113281 208.613281 185.007812 202.796875 185.117188 196.984375 C 185.121094 196.730469 185.074219 196.445312 185.441406 196.207031 C 186.6875 196.789062 187.6875 197.8125 188.765625 198.683594 C 191.234375 200.660156 193.761719 202.570312 196.210938 204.566406 C 197.683594 205.765625 199.140625 206.984375 200.714844 208.050781 C 203.132812 209.6875 204.730469 209.195312 206.78125 207.679688 C 207.199219 207.371094 207.496094 206.878906 208.105469 206.902344 C 209.375 208.902344 209.976562 211.171875 210.511719 213.414062 C 214.085938 228.433594 218.03125 243.367188 221.597656 258.386719 C 223.847656 267.84375 225.6875 277.398438 227.484375 286.953125 C 228.792969 293.917969 230.398438 300.8125 232.042969 307.703125 C 232.652344 310.277344 233.273438 312.84375 233.890625 315.414062 " fill-opacity="1" fill-rule="nonzero"/><path fill="#838343" d="M 193.691406 180.761719 C 194.003906 180.988281 194.316406 181.21875 194.625 181.445312 C 194.589844 184.085938 194.75 186.707031 195.269531 189.308594 C 196.148438 193.726562 198.675781 197.078125 202.015625 199.910156 C 202.820312 200.589844 203.703125 201.179688 204.585938 201.757812 C 205.582031 202.414062 206.34375 203.246094 206.8125 204.34375 C 206.082031 204.367188 205.738281 204.964844 205.277344 205.378906 C 204.0625 206.480469 203.230469 206.566406 201.878906 205.667969 C 199.855469 204.328125 198.082031 202.667969 196.171875 201.179688 C 193.179688 198.851562 190.15625 196.570312 187.152344 194.257812 C 186.007812 193.375 185.898438 193.355469 186.492188 192.121094 C 186.902344 191.261719 186.273438 190.855469 186.023438 190.265625 C 188.195312 186.789062 190.574219 183.476562 193.691406 180.761719 " fill-opacity="1" fill-rule="nonzero"/><path fill="#da654b" d="M 265.464844 260.050781 C 266.519531 260.011719 266.925781 260.75 267.214844 261.566406 C 267.527344 262.457031 267.769531 263.371094 268.242188 264.191406 C 268.375 265.523438 268.953125 266.730469 269.359375 267.980469 C 272.84375 278.683594 276.179688 289.429688 278.859375 300.363281 C 279.347656 302.363281 279.789062 304.371094 280.261719 306.375 C 280.394531 306.941406 280.371094 307.476562 279.761719 307.710938 C 279.101562 307.972656 278.648438 307.640625 278.371094 307.027344 C 277.757812 305.660156 277.546875 304.1875 277.253906 302.742188 C 276.378906 298.445312 275.183594 294.230469 273.953125 290.023438 C 271.195312 280.589844 268.351562 271.183594 265.296875 261.84375 C 265.078125 261.179688 265.050781 260.613281 265.464844 260.050781 " fill-opacity="1" fill-rule="nonzero"/><path fill="#828442" d="M 233.832031 319.902344 C 233.9375 320 234.042969 320.101562 234.148438 320.199219 C 233.988281 320.160156 233.871094 320.070312 233.832031 319.902344 " fill-opacity="1" fill-rule="nonzero"/><path fill="#13110f" d="M 183.644531 73.847656 C 182.941406 73.722656 182.523438 74.078125 182.082031 74.339844 C 181.761719 74.527344 181.484375 74.785156 181.175781 74.980469 C 180.394531 75.480469 179.773438 75.453125 179.324219 74.925781 C 178.851562 74.367188 178.957031 73.632812 179.6875 72.980469 C 180.605469 72.160156 181.652344 71.527344 182.859375 71.226562 C 185.234375 70.628906 187.484375 70.929688 189.558594 72.28125 C 190.628906 72.976562 191.351562 73.949219 191.609375 75.195312 C 192.484375 79.40625 192.019531 83.410156 189.695312 87.113281 C 188.925781 88.34375 187.941406 89.371094 186.710938 90.148438 C 183.269531 92.335938 179.488281 90.699219 178.722656 86.699219 C 178.425781 85.15625 178.515625 83.632812 178.953125 82.136719 C 179.71875 79.511719 180.972656 77.144531 182.769531 75.066406 C 183.074219 74.714844 183.53125 74.476562 183.644531 73.847656 " fill-opacity="1" fill-rule="nonzero"/><path fill="#13110f" d="M 227.984375 85.132812 C 228.992188 88.539062 228.695312 91.832031 227.140625 95.015625 C 226.503906 96.320312 225.640625 97.449219 224.46875 98.320312 C 221.152344 100.804688 217.429688 99.710938 216.042969 95.824219 C 215.179688 93.40625 215.441406 91.011719 216.449219 88.703125 C 217.152344 87.101562 218.09375 85.609375 219.175781 84.238281 C 221.675781 81.0625 226.144531 80.488281 229.972656 82.746094 C 231.351562 83.5625 232.316406 84.714844 232.933594 86.167969 C 233.1875 86.769531 233.039062 87.324219 232.476562 87.703125 C 231.953125 88.054688 231.285156 87.902344 230.796875 87.308594 C 230.5625 87.027344 230.394531 86.6875 230.191406 86.378906 C 229.714844 85.660156 229.144531 85.046875 228.277344 84.796875 C 228.15625 84.703125 228.011719 84.605469 227.890625 84.75 C 227.773438 84.886719 227.859375 85.027344 227.984375 85.132812 " fill-opacity="1" fill-rule="nonzero"/><path fill="#ec694f" d="M 229.976562 114.605469 C 226.152344 114.570312 222.03125 111.703125 221.039062 108.523438 C 220.609375 107.144531 220.941406 106.570312 222.136719 105.777344 C 223.601562 104.804688 225.089844 105.074219 226.566406 105.460938 C 228.734375 106.027344 230.761719 106.945312 232.488281 108.410156 C 233.734375 109.460938 234.113281 110.859375 233.777344 112.421875 C 233.617188 113.171875 233.121094 113.746094 232.386719 114.058594 C 231.550781 114.410156 230.707031 114.726562 229.976562 114.605469 " fill-opacity="1" fill-rule="nonzero"/><path fill="#ec694f" d="M 175.265625 101.5625 C 172.972656 101.730469 171 100.9375 169.171875 99.652344 C 168.503906 99.179688 168 98.601562 167.644531 97.867188 C 166.851562 96.234375 167.339844 94.617188 168.992188 93.890625 C 169.886719 93.5 170.828125 93.308594 171.898438 93.441406 C 173.59375 93.644531 175.21875 94.03125 176.839844 94.507812 C 177.871094 94.816406 178.800781 95.289062 179.53125 96.113281 C 180.855469 97.609375 180.628906 99.476562 179.015625 100.644531 C 177.871094 101.476562 176.601562 101.660156 175.265625 101.5625 " fill-opacity="1" fill-rule="nonzero"/><path fill="#d9674a" d="M 203.925781 90.207031 C 203.703125 91.644531 203.261719 93.132812 202.464844 94.441406 C 200.917969 96.96875 199.171875 99.363281 197.117188 101.515625 C 196.753906 101.898438 196.402344 102.285156 196.113281 102.738281 C 195.355469 103.941406 195.414062 104.574219 196.542969 105.445312 C 197.769531 106.390625 199.105469 107.121094 200.6875 107.320312 C 201.15625 107.378906 201.625 107.507812 202.0625 107.6875 C 202.519531 107.871094 202.894531 108.21875 202.871094 108.757812 C 202.847656 109.328125 202.527344 109.738281 201.992188 109.976562 C 201.636719 110.132812 201.265625 110.167969 200.902344 110.105469 C 198.335938 109.675781 196.023438 108.671875 194.144531 106.851562 C 192.40625 105.171875 192.527344 102.816406 194.324219 100.769531 C 195.859375 99.027344 197.375 97.269531 198.796875 95.421875 C 199.976562 93.886719 200.90625 92.257812 201.417969 90.394531 C 201.488281 90.140625 201.578125 89.890625 201.675781 89.644531 C 202.027344 88.765625 202.542969 88.386719 203.183594 88.5625 C 204.015625 88.789062 203.925781 89.476562 203.925781 90.207031 " fill-opacity="1" fill-rule="nonzero"/><path fill="#31201b" d="M 186.640625 60.449219 C 191.230469 60.664062 195.457031 62.328125 199.304688 65.046875 C 200.125 65.628906 200.925781 66.234375 201.875 66.609375 C 203.199219 67.132812 204.105469 66.832031 204.832031 65.617188 C 205.050781 65.253906 205.207031 64.851562 205.4375 64.5 C 205.765625 64.011719 206.242188 63.789062 206.8125 64.03125 C 207.367188 64.273438 207.539062 64.742188 207.457031 65.339844 C 207.117188 67.78125 204.542969 69.644531 202.09375 69.203125 C 200.699219 68.957031 199.53125 68.226562 198.390625 67.449219 C 196.371094 66.074219 194.273438 64.871094 191.9375 64.089844 C 190.113281 63.476562 188.269531 63.078125 186.34375 63.015625 C 185.605469 62.992188 184.863281 62.910156 184.140625 62.769531 C 183.496094 62.648438 183.132812 62.195312 183.164062 61.515625 C 183.195312 60.828125 183.648438 60.484375 184.269531 60.351562 C 185.015625 60.199219 185.742188 60.46875 186.640625 60.449219 " fill-opacity="1" fill-rule="nonzero"/><path fill="#31201b" d="M 228.335938 76.96875 C 224.554688 77.042969 221.984375 73.804688 222.816406 70.292969 C 222.949219 69.71875 223.253906 69.296875 223.867188 69.277344 C 224.558594 69.25 224.945312 69.683594 225.046875 70.332031 C 225.128906 70.855469 225.101562 71.390625 225.175781 71.914062 C 225.449219 73.867188 226.328125 74.605469 228.292969 74.480469 C 229.832031 74.382812 231.332031 74.023438 232.839844 73.738281 C 236.308594 73.078125 239.789062 72.96875 243.285156 73.488281 C 243.652344 73.542969 244.023438 73.605469 244.371094 73.726562 C 245.210938 74.019531 245.589844 74.597656 245.390625 75.269531 C 245.175781 75.992188 244.636719 76.25 243.917969 76.1875 C 243.707031 76.167969 243.5 76.125 243.289062 76.089844 C 239.847656 75.519531 236.421875 75.644531 233.007812 76.316406 C 231.394531 76.636719 229.765625 76.867188 228.335938 76.96875 " fill-opacity="1" fill-rule="nonzero"/><path fill="#bf5a46" d="M 208.203125 121.566406 C 205.144531 121.597656 201.996094 122.246094 198.878906 123.121094 C 196.273438 123.855469 193.667969 124.574219 191.328125 125.992188 C 190.773438 126.324219 190.230469 126.410156 189.792969 125.796875 C 189.390625 125.226562 189.511719 124.710938 189.957031 124.21875 C 190.761719 123.316406 191.816406 122.796875 192.90625 122.398438 C 196.589844 121.054688 200.300781 119.753906 204.191406 119.195312 C 206.066406 118.925781 207.964844 118.648438 209.882812 118.777344 C 210.367188 118.8125 210.828125 118.886719 211.285156 119.027344 C 211.941406 119.234375 212.488281 119.578125 212.398438 120.351562 C 212.308594 121.066406 211.792969 121.5 211.101562 121.550781 C 210.207031 121.617188 209.300781 121.566406 208.203125 121.566406 " fill-opacity="1" fill-rule="nonzero"/><path fill="#db664b" d="M 254.152344 103.601562 C 255.105469 103.785156 255.8125 103.949219 256.527344 104.050781 C 257.191406 104.148438 257.710938 104.433594 257.578125 105.144531 C 257.449219 105.820312 256.785156 105.734375 256.265625 105.710938 C 255.582031 105.679688 254.898438 105.695312 254.214844 105.542969 C 253.074219 105.289062 252.835938 105.410156 252.4375 106.519531 C 252.101562 107.453125 251.664062 108.375 251.6875 109.414062 C 251.699219 109.835938 251.507812 110.132812 251.042969 110.152344 C 250.550781 110.175781 250.226562 109.929688 250.132812 109.457031 C 249.917969 108.371094 250.222656 107.335938 250.609375 106.363281 C 251.152344 104.988281 251.785156 103.636719 252.679688 102.445312 C 254.589844 99.914062 256.996094 99.070312 259.925781 99.992188 C 260.226562 100.089844 260.523438 100.21875 260.789062 100.386719 C 261.242188 100.683594 261.703125 101.054688 261.4375 101.667969 C 261.179688 102.269531 260.628906 102.261719 260.078125 102.078125 C 259.675781 101.941406 259.28125 101.777344 258.871094 101.683594 C 256.972656 101.246094 255.480469 101.882812 254.152344 103.601562 " fill-opacity="1" fill-rule="nonzero"/><path fill="#d9674a" d="M 156.574219 69.113281 C 155.730469 69.113281 154.941406 69.117188 154.15625 69.109375 C 153.703125 69.105469 153.289062 69.011719 153.265625 68.441406 C 153.246094 67.859375 153.585938 67.582031 154.128906 67.503906 C 154.734375 67.421875 155.378906 67.589844 156.089844 67.273438 C 155.511719 66.253906 154.910156 65.453125 153.765625 65.238281 C 153.558594 65.199219 153.355469 65.132812 153.152344 65.082031 C 152.585938 64.929688 151.898438 64.839844 152.050781 64.027344 C 152.191406 63.257812 152.878906 63.347656 153.457031 63.335938 C 155.230469 63.296875 156.480469 64.210938 157.382812 65.621094 C 158.199219 66.882812 158.640625 68.296875 158.671875 69.816406 C 158.714844 71.984375 158.839844 74.160156 158.066406 76.25 C 157.972656 76.496094 157.964844 76.785156 157.832031 77 C 157.613281 77.359375 157.332031 77.75 156.820312 77.507812 C 156.417969 77.320312 156.128906 76.992188 156.253906 76.492188 C 156.503906 75.519531 156.667969 74.53125 156.867188 73.550781 C 157.160156 72.101562 157.09375 70.71875 156.574219 69.113281 " fill-opacity="1" fill-rule="nonzero"/><path fill="#fab583" d="M 167.339844 137.210938 C 167.152344 137.164062 167.019531 137.058594 166.953125 136.875 C 167.082031 136.988281 167.210938 137.097656 167.339844 137.210938 " fill-opacity="1" fill-rule="nonzero"/><path fill="#f9b382" d="M 283.589844 372.398438 C 282.476562 373.398438 281.257812 373.070312 280.140625 373.027344 C 279.308594 372.996094 278.472656 372.75 277.703125 372.382812 C 276.945312 372.019531 276.257812 371.679688 275.929688 370.730469 C 275.53125 369.574219 274.453125 368.8125 273.652344 367.917969 C 271.328125 365.320312 269.019531 362.707031 266.8125 360.007812 C 265.84375 358.820312 264.890625 357.625 263.9375 356.421875 C 263.777344 356.21875 263.640625 355.984375 263.71875 355.609375 C 264.792969 355.714844 265.886719 355.757812 266.957031 355.941406 C 268.640625 356.234375 270.3125 356.3125 271.988281 355.925781 C 272.628906 355.777344 272.929688 356.054688 273.246094 356.566406 C 274.226562 358.136719 275.058594 359.789062 276.039062 361.363281 C 277.882812 364.335938 279.957031 367.125 282.105469 369.875 C 282.6875 370.617188 283.289062 371.359375 283.589844 372.398438 " fill-opacity="1" fill-rule="nonzero"/><path fill="#f9b382" d="M 275.015625 355.011719 C 276.148438 354.285156 277.527344 353.898438 278.824219 353.351562 C 279.398438 353.109375 279.699219 353.5625 279.945312 353.984375 C 280.585938 355.082031 281.238281 356.171875 281.835938 357.289062 C 283.820312 360.976562 286.222656 364.402344 288.492188 367.910156 C 289.675781 369.75 289.539062 369.992188 287.355469 370.609375 C 285.933594 371.011719 285.054688 370.722656 284.140625 369.46875 C 281.773438 366.21875 279.351562 363.011719 277.222656 359.597656 C 276.496094 358.429688 275.851562 357.214844 275.167969 356.023438 C 275.007812 355.742188 274.867188 355.457031 275.015625 355.011719 " fill-opacity="1" fill-rule="nonzero"/><path fill="#fab583" d="M 227.984375 85.132812 C 227.859375 85.027344 227.773438 84.886719 227.890625 84.75 C 228.011719 84.605469 228.15625 84.703125 228.277344 84.796875 C 228.179688 84.910156 228.082031 85.023438 227.984375 85.132812 " fill-opacity="1" fill-rule="nonzero"/><path fill="#12110f" d="M 137.617188 23.605469 C 137.601562 28.464844 135.746094 32.617188 132.726562 36.328125 C 131.472656 37.863281 130.050781 39.238281 128.589844 40.5625 C 126.007812 42.90625 125.03125 45.773438 125.546875 49.1875 C 125.617188 49.644531 125.652344 50.109375 125.652344 50.574219 C 125.644531 52.195312 124.796875 53.34375 123.507812 53.527344 C 122.140625 53.722656 120.890625 52.800781 120.574219 51.148438 C 120.332031 49.902344 120.230469 48.613281 120.242188 47.34375 C 120.265625 43.917969 121.269531 40.824219 123.664062 38.285156 C 124.699219 37.1875 125.777344 36.128906 126.847656 35.066406 C 128.296875 33.632812 129.617188 32.097656 130.613281 30.300781 C 133.492188 25.117188 132.824219 19.105469 129.203125 14.890625 C 125.992188 11.152344 119.144531 11.675781 116.824219 14.957031 C 116.253906 15.761719 115.59375 16.503906 114.925781 17.230469 C 113.925781 18.316406 112.667969 18.464844 111.667969 17.679688 C 110.730469 16.941406 110.53125 15.730469 111.246094 14.554688 C 114.167969 9.742188 118.242188 6.890625 124.101562 7.128906 C 127.132812 7.253906 129.742188 8.375 131.96875 10.398438 C 135.613281 13.710938 137.617188 18.417969 137.617188 23.605469 " fill-opacity="1" fill-rule="nonzero"/><path fill="#131211" d="M 108.933594 56.242188 C 108.882812 58.941406 108.167969 61.507812 107.332031 64.050781 C 106.757812 65.8125 106.078125 67.539062 105.703125 69.371094 C 105.207031 71.796875 105.6875 73.980469 107.117188 75.96875 C 107.730469 76.8125 108.425781 77.597656 109.050781 78.433594 C 109.824219 79.460938 109.816406 80.40625 109.078125 81.085938 C 108.363281 81.746094 107.289062 81.691406 106.429688 80.824219 C 102.710938 77.054688 100.867188 72.707031 102.457031 67.375 C 103.003906 65.539062 103.683594 63.746094 104.226562 61.910156 C 104.984375 59.351562 105.730469 56.777344 105.109375 54.046875 C 104.585938 51.742188 103.367188 49.886719 101.492188 48.46875 C 100.070312 47.390625 98.433594 47.070312 96.699219 47.394531 C 93.480469 47.988281 91.042969 49.472656 90.496094 53.03125 C 90.414062 53.539062 90.257812 54.058594 90.027344 54.519531 C 89.652344 55.277344 88.878906 55.570312 88.125 55.316406 C 87.347656 55.058594 86.949219 54.417969 87.066406 53.703125 C 87.605469 50.4375 88.414062 47.300781 91.667969 45.542969 C 95.351562 43.546875 99.097656 42.769531 102.910156 45.105469 C 105.871094 46.917969 107.691406 49.621094 108.578125 52.957031 C 108.859375 54.027344 108.984375 55.125 108.933594 56.242188 " fill-opacity="1" fill-rule="nonzero"/><path fill="#161413" d="M 126.101562 60.914062 C 126.125 62.191406 125.082031 63.257812 123.828125 63.230469 C 122.65625 63.210938 121.621094 62.183594 121.589844 61.015625 C 121.554688 59.78125 122.632812 58.710938 123.902344 58.726562 C 125.128906 58.742188 126.074219 59.683594 126.101562 60.914062 " fill-opacity="1" fill-rule="nonzero"/><path fill="#181615" d="M 110.453125 88.128906 C 109.335938 88.121094 108.332031 87.183594 108.386719 86.199219 C 108.429688 85.359375 109.15625 84.703125 110.019531 84.71875 C 111.097656 84.742188 112.132812 85.726562 112.085938 86.675781 C 112.039062 87.53125 111.363281 88.132812 110.453125 88.128906 " fill-opacity="1" fill-rule="nonzero"/></svg>