<svg xmlns="http://www.w3.org/2000/svg" xmlns:xlink="http://www.w3.org/1999/xlink" width="500" zoomAndPan="magnify" viewBox="0 0 375 374.999991" height="500" preserveAspectRatio="xMidYMid meet" version="1.0"><defs><clipPath id="5a335f085b"><path d="M 12 21.796875 L 32 21.796875 L 32 353.296875 L 12 353.296875 Z M 12 21.796875 " clip-rule="nonzero"/></clipPath><clipPath id="ff67461441"><path d="M 8 21.796875 L 27 21.796875 L 27 353.296875 L 8 353.296875 Z M 8 21.796875 " clip-rule="nonzero"/></clipPath><clipPath id="a8f35242a5"><path d="M 17 21.796875 L 27 21.796875 L 27 353.296875 L 17 353.296875 Z M 17 21.796875 " clip-rule="nonzero"/></clipPath></defs><path fill="#dac9ab" d="M 286.925781 235.878906 C 287.679688 235.878906 287.679688 234.707031 286.925781 234.707031 C 286.167969 234.707031 286.167969 235.878906 286.925781 235.878906 " fill-opacity="1" fill-rule="nonzero"/><path fill="#e25e21" d="M 357.535156 184.019531 L 239.078125 85.617188 L 120.621094 184.019531 Z M 357.535156 184.019531 " fill-opacity="1" fill-rule="nonzero"/><path fill="#c8471e" d="M 344.546875 173.230469 L 239.078125 85.617188 L 133.605469 173.230469 Z M 344.546875 173.230469 " fill-opacity="1" fill-rule="nonzero"/><path fill="#e25e21" d="M 338.195312 167.953125 L 239.078125 85.617188 L 139.960938 167.953125 Z M 338.195312 167.953125 " fill-opacity="1" fill-rule="nonzero"/><path fill="#c8471e" d="M 329.058594 160.363281 L 239.078125 85.617188 L 149.097656 160.363281 Z M 329.058594 160.363281 " fill-opacity="1" fill-rule="nonzero"/><path fill="#e25e21" d="M 322.308594 154.757812 L 239.078125 85.617188 L 155.847656 154.757812 Z M 322.308594 154.757812 " fill-opacity="1" fill-rule="nonzero"/><path fill="#c8471e" d="M 311.980469 146.175781 L 239.078125 85.617188 L 166.175781 146.175781 Z M 311.980469 146.175781 " fill-opacity="1" fill-rule="nonzero"/><path fill="#e25e21" d="M 302.054688 137.929688 L 239.078125 85.617188 L 176.105469 137.929688 Z M 302.054688 137.929688 " fill-opacity="1" fill-rule="nonzero"/><path fill="#798378" d="M 295.4375 132.433594 L 239.078125 85.617188 L 182.71875 132.433594 Z M 295.4375 132.433594 " fill-opacity="1" fill-rule="nonzero"/><path fill="#99a798" d="M 288.636719 126.785156 L 239.078125 85.617188 L 189.519531 126.785156 Z M 288.636719 126.785156 " fill-opacity="1" fill-rule="nonzero"/><path fill="#798378" d="M 279.359375 119.078125 L 239.078125 85.617188 L 198.796875 119.078125 Z M 279.359375 119.078125 " fill-opacity="1" fill-rule="nonzero"/><path fill="#99a798" d="M 270.542969 111.753906 L 239.078125 85.617188 L 207.613281 111.753906 Z M 270.542969 111.753906 " fill-opacity="1" fill-rule="nonzero"/><path fill="#c8471e" d="M 239.078125 85.617188 L 295.4375 132.433594 L 289.746094 132.433594 L 239.078125 90.34375 L 188.410156 132.433594 L 182.71875 132.433594 L 239.078125 85.617188 " fill-opacity="1" fill-rule="nonzero"/><path fill="#fbe8c5" d="M 239.078125 87.613281 L 293.035156 132.433594 L 287.582031 132.433594 L 239.078125 92.140625 L 190.574219 132.433594 L 185.125 132.433594 L 239.078125 87.613281 " fill-opacity="1" fill-rule="nonzero"/><path fill="#c9b89d" d="M 239.078125 92.140625 L 287.582031 132.433594 L 282.683594 132.433594 L 239.078125 96.210938 L 195.472656 132.433594 L 190.574219 132.433594 L 239.078125 92.140625 " fill-opacity="1" fill-rule="nonzero"/><path fill="#99a798" d="M 330.21875 161.058594 L 267.523438 108.976562 L 204.828125 161.058594 Z M 330.21875 161.058594 " fill-opacity="1" fill-rule="nonzero"/><path fill="#798378" d="M 318.484375 151.3125 L 267.523438 108.976562 L 216.5625 151.3125 Z M 318.484375 151.3125 " fill-opacity="1" fill-rule="nonzero"/><path fill="#99a798" d="M 307.328125 142.046875 L 267.523438 108.976562 L 227.71875 142.046875 Z M 307.328125 142.046875 " fill-opacity="1" fill-rule="nonzero"/><path fill="#c8471e" d="M 267.523438 108.976562 L 338.824219 168.207031 L 331.621094 168.207031 L 267.523438 114.960938 L 203.421875 168.207031 L 196.222656 168.207031 L 267.523438 108.976562 " fill-opacity="1" fill-rule="nonzero"/><path fill="#fbe8c5" d="M 267.523438 111.503906 L 335.78125 168.207031 L 328.886719 168.207031 L 267.523438 117.234375 L 206.164062 168.207031 L 199.265625 168.207031 L 267.523438 111.503906 " fill-opacity="1" fill-rule="nonzero"/><path fill="#c9b89d" d="M 267.523438 117.234375 L 328.886719 168.207031 L 322.6875 168.207031 L 267.523438 122.382812 L 212.359375 168.207031 L 206.164062 168.207031 L 267.523438 117.234375 " fill-opacity="1" fill-rule="nonzero"/><path fill="#3e413c" d="M 359.410156 302.410156 L 260.191406 302.410156 L 260.191406 185.621094 L 359.410156 185.621094 L 359.410156 302.410156 " fill-opacity="1" fill-rule="nonzero"/><path fill="#798378" d="M 347.722656 302.410156 L 260.191406 302.410156 L 260.191406 197.664062 L 347.722656 197.664062 L 347.722656 302.410156 " fill-opacity="1" fill-rule="nonzero"/><path fill="#fbe8c5" d="M 277.476562 302.410156 L 338.941406 302.410156 L 338.941406 201.5625 L 277.476562 201.5625 L 277.476562 302.410156 " fill-opacity="1" fill-rule="nonzero"/><path fill="#c9b89d" d="M 280.109375 302.410156 L 336.308594 302.410156 L 336.308594 205.167969 L 280.109375 205.167969 L 280.109375 302.410156 " fill-opacity="1" fill-rule="nonzero"/><path fill="#99a798" d="M 118.828125 321.867188 L 260.191406 321.867188 L 260.191406 185.621094 L 118.828125 185.621094 L 118.828125 321.867188 " fill-opacity="1" fill-rule="nonzero"/><path fill="#798378" d="M 118.828125 195.636719 L 260.191406 195.636719 L 260.191406 185.621094 L 118.828125 185.621094 L 118.828125 195.636719 " fill-opacity="1" fill-rule="nonzero"/><path fill="#798378" d="M 110.203125 321.867188 L 260.191406 321.867188 L 260.191406 289.800781 L 110.203125 289.800781 L 110.203125 321.867188 " fill-opacity="1" fill-rule="nonzero"/><path fill="#5e655d" d="M 110.203125 321.867188 L 260.191406 321.867188 L 260.191406 305.832031 L 110.203125 305.832031 L 110.203125 321.867188 " fill-opacity="1" fill-rule="nonzero"/><path fill="#fbe8c5" d="M 254.003906 315.277344 L 365.859375 315.277344 L 365.859375 302.410156 L 254.003906 302.410156 L 254.003906 315.277344 " fill-opacity="1" fill-rule="nonzero"/><path fill="#c9b89d" d="M 254.003906 315.277344 L 365.859375 315.277344 L 365.859375 308.84375 L 254.003906 308.84375 L 254.003906 315.277344 " fill-opacity="1" fill-rule="nonzero"/><path fill="#fbe8c5" d="M 249.378906 315.277344 L 370.488281 315.277344 L 370.488281 328.449219 L 249.378906 328.449219 L 249.378906 315.277344 " fill-opacity="1" fill-rule="nonzero"/><path fill="#c9b89d" d="M 249.378906 321.867188 L 370.488281 321.867188 L 370.488281 328.449219 L 249.378906 328.449219 L 249.378906 321.867188 " fill-opacity="1" fill-rule="nonzero"/><path fill="#fbe8c5" d="M 245.28125 338.988281 L 374.582031 338.988281 L 374.582031 328.449219 L 245.28125 328.449219 L 245.28125 338.988281 " fill-opacity="1" fill-rule="nonzero"/><path fill="#c9b89d" d="M 245.28125 338.988281 L 374.582031 338.988281 L 374.582031 333.71875 L 245.28125 333.71875 L 245.28125 338.988281 " fill-opacity="1" fill-rule="nonzero"/><path fill="#e25e21" d="M 283.328125 302.410156 L 333.085938 302.410156 L 333.085938 208.035156 L 283.328125 208.035156 L 283.328125 302.410156 " fill-opacity="1" fill-rule="nonzero"/><path fill="#c8471e" d="M 308.894531 302.410156 L 308.207031 302.410156 L 308.207031 208.035156 L 308.894531 208.035156 L 308.894531 302.410156 " fill-opacity="1" fill-rule="nonzero"/><path fill="#c8471e" d="M 314.355469 248.417969 L 327.753906 248.417969 L 327.753906 214.183594 L 314.355469 214.183594 Z M 331.269531 251.933594 L 310.84375 251.933594 L 310.84375 210.667969 L 331.269531 210.667969 L 331.269531 251.933594 " fill-opacity="1" fill-rule="nonzero"/><path fill="#c8471e" d="M 314.355469 293.378906 L 327.753906 293.378906 L 327.753906 259.144531 L 314.355469 259.144531 Z M 331.269531 296.894531 L 310.84375 296.894531 L 310.84375 255.628906 L 331.269531 255.628906 L 331.269531 296.894531 " fill-opacity="1" fill-rule="nonzero"/><path fill="#c8471e" d="M 289.476562 248.417969 L 302.875 248.417969 L 302.875 214.183594 L 289.476562 214.183594 Z M 306.390625 251.933594 L 285.964844 251.933594 L 285.964844 210.667969 L 306.390625 210.667969 L 306.390625 251.933594 " fill-opacity="1" fill-rule="nonzero"/><path fill="#c8471e" d="M 289.476562 293.554688 L 302.875 293.554688 L 302.875 259.320312 L 289.476562 259.320312 Z M 306.390625 297.070312 L 285.964844 297.070312 L 285.964844 255.804688 L 306.390625 255.804688 L 306.390625 297.070312 " fill-opacity="1" fill-rule="nonzero"/><path fill="#fbe8c5" d="M 352.015625 195.636719 L 365.671875 195.636719 L 365.671875 192.308594 L 352.015625 192.308594 L 352.015625 195.636719 " fill-opacity="1" fill-rule="nonzero"/><path fill="#c9b89d" d="M 353.8125 302.410156 L 363.878906 302.410156 L 363.878906 195.636719 L 353.8125 195.636719 L 353.8125 302.410156 " fill-opacity="1" fill-rule="nonzero"/><path fill="#fbe8c5" d="M 358.847656 302.410156 L 363.878906 302.410156 L 363.878906 195.636719 L 358.847656 195.636719 L 358.847656 302.410156 " fill-opacity="1" fill-rule="nonzero"/><path fill="#fbe8c5" d="M 350.457031 195.636719 L 367.234375 195.636719 L 367.234375 189.574219 L 350.457031 189.574219 L 350.457031 195.636719 " fill-opacity="1" fill-rule="nonzero"/><path fill="#c9b89d" d="M 350.457031 195.636719 L 367.234375 195.636719 L 367.234375 192.609375 L 350.457031 192.609375 L 350.457031 195.636719 " fill-opacity="1" fill-rule="nonzero"/><path fill="#fbe8c5" d="M 109.082031 189.574219 L 367.234375 189.574219 L 367.234375 182.644531 L 109.082031 182.644531 L 109.082031 189.574219 " fill-opacity="1" fill-rule="nonzero"/><path fill="#c9b89d" d="M 109.082031 189.574219 L 367.234375 189.574219 L 367.234375 185.425781 L 109.082031 185.425781 L 109.082031 189.574219 " fill-opacity="1" fill-rule="nonzero"/><path fill="#fbe8c5" d="M 260.191406 189.574219 L 367.234375 189.574219 L 367.234375 182.644531 L 260.191406 182.644531 L 260.191406 189.574219 " fill-opacity="1" fill-rule="nonzero"/><path fill="#c9b89d" d="M 260.191406 189.574219 L 367.234375 189.574219 L 367.234375 185.425781 L 260.191406 185.425781 L 260.191406 189.574219 " fill-opacity="1" fill-rule="nonzero"/><path fill="#99a798" d="M 169.171875 273.839844 L 133.078125 273.839844 L 133.078125 214.035156 L 169.171875 214.035156 L 169.171875 273.839844 " fill-opacity="1" fill-rule="nonzero"/><path fill="#f3f1c2" d="M 133.078125 238.539062 L 133.078125 252.328125 L 159.519531 214.035156 L 148.84375 214.035156 L 133.078125 238.539062 " fill-opacity="1" fill-rule="nonzero"/><path fill="#f3f1c2" d="M 169.171875 219.417969 L 164.683594 219.417969 L 133.078125 268.542969 L 133.078125 273.839844 L 138.371094 273.839844 L 169.171875 229.230469 L 169.171875 219.417969 " fill-opacity="1" fill-rule="nonzero"/><path fill="#e25e21" d="M 134.863281 272.058594 L 167.386719 272.058594 L 167.386719 215.8125 L 134.863281 215.8125 Z M 170.949219 275.621094 L 131.300781 275.621094 L 131.300781 212.25 L 170.949219 212.25 L 170.949219 275.621094 " fill-opacity="1" fill-rule="nonzero"/><path fill="#c8471e" d="M 172.851562 221.605469 L 129.398438 221.605469 L 129.398438 210.238281 L 172.851562 210.238281 L 172.851562 221.605469 " fill-opacity="1" fill-rule="nonzero"/><path fill="#e25e21" d="M 172.851562 221.605469 L 129.398438 221.605469 L 129.398438 215.921875 L 172.851562 215.921875 L 172.851562 221.605469 " fill-opacity="1" fill-rule="nonzero"/><path fill="#e25e21" d="M 152.070312 272.058594 L 150.316406 272.058594 L 150.316406 221.605469 L 152.070312 221.605469 L 152.070312 272.058594 " fill-opacity="1" fill-rule="nonzero"/><path fill="#e25e21" d="M 143.515625 234.980469 L 141.757812 234.980469 L 141.757812 221.605469 L 143.515625 221.605469 L 143.515625 234.980469 " fill-opacity="1" fill-rule="nonzero"/><path fill="#e25e21" d="M 160.296875 234.980469 L 158.539062 234.980469 L 158.539062 221.605469 L 160.296875 221.605469 L 160.296875 234.980469 " fill-opacity="1" fill-rule="nonzero"/><path fill="#e25e21" d="M 170.949219 235.859375 L 131.433594 235.859375 L 131.433594 234.101562 L 170.949219 234.101562 L 170.949219 235.859375 " fill-opacity="1" fill-rule="nonzero"/><path fill="#99a798" d="M 234.875 273.839844 L 198.78125 273.839844 L 198.78125 214.035156 L 234.875 214.035156 L 234.875 273.839844 " fill-opacity="1" fill-rule="nonzero"/><path fill="#f3f1c2" d="M 198.78125 238.539062 L 198.78125 252.328125 L 225.222656 214.035156 L 214.550781 214.035156 L 198.78125 238.539062 " fill-opacity="1" fill-rule="nonzero"/><path fill="#f3f1c2" d="M 234.875 219.417969 L 230.386719 219.417969 L 198.78125 268.542969 L 198.78125 273.839844 L 204.074219 273.839844 L 234.875 229.230469 L 234.875 219.417969 " fill-opacity="1" fill-rule="nonzero"/><path fill="#e25e21" d="M 200.566406 272.058594 L 233.09375 272.058594 L 233.09375 215.8125 L 200.566406 215.8125 Z M 236.652344 275.621094 L 197.003906 275.621094 L 197.003906 212.25 L 236.652344 212.25 L 236.652344 275.621094 " fill-opacity="1" fill-rule="nonzero"/><path fill="#c8471e" d="M 238.554688 221.605469 L 195.101562 221.605469 L 195.101562 210.238281 L 238.554688 210.238281 L 238.554688 221.605469 " fill-opacity="1" fill-rule="nonzero"/><path fill="#e25e21" d="M 238.554688 221.605469 L 195.101562 221.605469 L 195.101562 215.921875 L 238.554688 215.921875 L 238.554688 221.605469 " fill-opacity="1" fill-rule="nonzero"/><path fill="#e25e21" d="M 217.773438 272.058594 L 216.019531 272.058594 L 216.019531 221.605469 L 217.773438 221.605469 L 217.773438 272.058594 " fill-opacity="1" fill-rule="nonzero"/><path fill="#e25e21" d="M 209.21875 234.980469 L 207.460938 234.980469 L 207.460938 221.605469 L 209.21875 221.605469 L 209.21875 234.980469 " fill-opacity="1" fill-rule="nonzero"/><path fill="#e25e21" d="M 226 234.980469 L 224.246094 234.980469 L 224.246094 221.605469 L 226 221.605469 L 226 234.980469 " fill-opacity="1" fill-rule="nonzero"/><path fill="#e25e21" d="M 236.652344 235.859375 L 197.136719 235.859375 L 197.136719 234.101562 L 236.652344 234.101562 L 236.652344 235.859375 " fill-opacity="1" fill-rule="nonzero"/><path fill="#798378" d="M 188.101562 86.359375 L 183.808594 86.359375 L 183.808594 38.359375 L 188.101562 38.359375 L 188.101562 86.359375 " fill-opacity="1" fill-rule="nonzero"/><path fill="#798378" d="M 58.835938 86.359375 L 54.542969 86.359375 L 54.542969 38.359375 L 58.835938 38.359375 L 58.835938 86.359375 " fill-opacity="1" fill-rule="nonzero"/><path fill="#c8471e" d="M 207.183594 150.199219 L 38.328125 150.199219 L 33.558594 144.953125 L 202.414062 77.675781 L 207.183594 82.925781 L 207.183594 150.199219 " fill-opacity="1" fill-rule="nonzero"/><g clip-path="url(#5a335f085b)"><path fill="#a3361f" d="M 31.726562 353.234375 L 12.996094 353.234375 L 12.996094 21.757812 L 26.957031 21.757812 L 31.726562 28.054688 L 31.726562 353.234375 " fill-opacity="1" fill-rule="nonzero"/></g><g clip-path="url(#ff67461441)"><path fill="#e25e21" d="M 26.957031 353.234375 L 8.226562 353.234375 L 8.226562 21.757812 L 26.957031 21.757812 L 26.957031 353.234375 " fill-opacity="1" fill-rule="nonzero"/></g><g clip-path="url(#a8f35242a5)"><path fill="#c8471e" d="M 26.957031 353.234375 L 17.589844 353.234375 L 17.589844 21.757812 L 26.957031 21.757812 L 26.957031 353.234375 " fill-opacity="1" fill-rule="nonzero"/></g><path fill="#bf6a27" d="M 209.570312 57.445312 L 2.390625 57.445312 L 0.480469 55.535156 L 207.660156 38.359375 L 209.570312 40.269531 L 209.570312 57.445312 " fill-opacity="1" fill-rule="nonzero"/><path fill="#f8b446" d="M 207.660156 55.535156 L 0.480469 55.535156 L 0.480469 38.359375 L 207.660156 38.359375 L 207.660156 55.535156 " fill-opacity="1" fill-rule="nonzero"/><path fill="#d68a3c" d="M 207.660156 55.535156 L 0.480469 55.535156 L 0.480469 46.949219 L 207.660156 46.949219 L 207.660156 55.535156 " fill-opacity="1" fill-rule="nonzero"/><path fill="#3e413c" d="M 13.492188 47.425781 C 13.492188 44.894531 15.542969 42.84375 18.066406 42.84375 C 20.59375 42.84375 22.644531 44.894531 22.644531 47.425781 C 22.644531 49.953125 20.59375 52.003906 18.066406 52.003906 C 15.542969 52.003906 13.492188 49.953125 13.492188 47.425781 " fill-opacity="1" fill-rule="nonzero"/><path fill="#99a798" d="M 13.015625 46.949219 C 13.015625 44.421875 15.0625 42.367188 17.589844 42.367188 C 20.117188 42.367188 22.167969 44.421875 22.167969 46.949219 C 22.167969 49.480469 20.117188 51.527344 17.589844 51.527344 C 15.0625 51.527344 13.015625 49.480469 13.015625 46.949219 " fill-opacity="1" fill-rule="nonzero"/><path fill="#798378" d="M 13.457031 47.171875 C 13.457031 44.765625 15.410156 42.816406 17.8125 42.816406 C 20.21875 42.816406 22.167969 44.765625 22.167969 47.171875 C 22.167969 49.578125 20.21875 51.527344 17.8125 51.527344 C 15.410156 51.527344 13.457031 49.578125 13.457031 47.171875 " fill-opacity="1" fill-rule="nonzero"/><path fill="#3e413c" d="M 18.066406 50.480469 L 17.335938 50.480469 L 17.335938 43.484375 L 18.066406 43.484375 L 18.066406 50.480469 " fill-opacity="1" fill-rule="nonzero"/><path fill="#3e413c" d="M 14.203125 47.34375 L 14.203125 46.617188 L 21.199219 46.617188 L 21.199219 47.34375 L 14.203125 47.34375 " fill-opacity="1" fill-rule="nonzero"/><path fill="#e25e21" d="M 202.414062 144.953125 L 33.558594 144.953125 L 33.558594 77.675781 L 202.414062 77.675781 L 202.414062 144.953125 " fill-opacity="1" fill-rule="nonzero"/><path fill="#cc4f1f" d="M 202.414062 144.953125 L 33.558594 144.953125 L 33.558594 119.664062 L 202.414062 119.664062 L 202.414062 144.953125 " fill-opacity="1" fill-rule="nonzero"/><path fill="#c8471e" d="M 50.238281 86.359375 C 50.238281 83.851562 52.269531 81.8125 54.78125 81.8125 C 57.296875 81.8125 59.328125 83.851562 59.328125 86.359375 C 59.328125 88.871094 57.296875 90.910156 54.78125 90.910156 C 52.269531 90.910156 50.238281 88.871094 50.238281 86.359375 " fill-opacity="1" fill-rule="nonzero"/><path fill="#a22f1f" d="M 52.140625 87.3125 C 52.140625 85.328125 53.753906 83.722656 55.738281 83.722656 C 57.722656 83.722656 59.328125 85.328125 59.328125 87.3125 C 59.328125 89.300781 57.722656 90.910156 55.738281 90.910156 C 53.753906 90.910156 52.140625 89.300781 52.140625 87.3125 " fill-opacity="1" fill-rule="nonzero"/><path fill="#798378" d="M 59.128906 86.144531 C 58.757812 85.0625 57.890625 84.21875 56.796875 83.878906 L 54.679688 83.878906 C 53.8125 84.148438 53.085938 84.738281 52.632812 85.503906 L 52.632812 86.359375 L 59.128906 86.359375 L 59.128906 86.144531 " fill-opacity="1" fill-rule="nonzero"/><path fill="#99a798" d="M 56.929688 86.359375 L 52.632812 86.359375 L 52.632812 38.359375 L 56.929688 38.359375 L 56.929688 86.359375 " fill-opacity="1" fill-rule="nonzero"/><path fill="#c8471e" d="M 179.5 86.359375 C 179.5 83.851562 181.539062 81.8125 184.046875 81.8125 C 186.558594 81.8125 188.597656 83.851562 188.597656 86.359375 C 188.597656 88.871094 186.558594 90.910156 184.046875 90.910156 C 181.539062 90.910156 179.5 88.871094 179.5 86.359375 " fill-opacity="1" fill-rule="nonzero"/><path fill="#a22f1f" d="M 181.410156 87.3125 C 181.410156 85.328125 183.019531 83.722656 185.003906 83.722656 C 186.988281 83.722656 188.597656 85.328125 188.597656 87.3125 C 188.597656 89.300781 186.988281 90.910156 185.003906 90.910156 C 183.019531 90.910156 181.410156 89.300781 181.410156 87.3125 " fill-opacity="1" fill-rule="nonzero"/><path fill="#798378" d="M 188.398438 86.144531 C 188.023438 85.0625 187.152344 84.21875 186.0625 83.878906 L 183.945312 83.878906 C 183.078125 84.148438 182.351562 84.738281 181.902344 85.503906 L 181.902344 86.359375 L 188.398438 86.359375 L 188.398438 86.144531 " fill-opacity="1" fill-rule="nonzero"/><path fill="#99a798" d="M 186.195312 86.359375 L 181.902344 86.359375 L 181.902344 38.359375 L 186.195312 38.359375 L 186.195312 86.359375 " fill-opacity="1" fill-rule="nonzero"/><path fill="#fbe168" d="M 48.34375 40.699219 L 1.359375 40.699219 L 1.359375 39.269531 L 48.34375 39.269531 L 48.34375 40.699219 " fill-opacity="1" fill-rule="nonzero"/><path fill="#eb834e" d="M 12.566406 36.164062 L 9.230469 36.164062 L 9.230469 23.042969 L 12.566406 23.042969 L 12.566406 36.164062 " fill-opacity="1" fill-rule="nonzero"/><path fill="#eb834e" d="M 50.238281 81.8125 L 35.703125 81.8125 L 35.703125 80.0625 L 50.238281 80.0625 L 50.238281 81.8125 " fill-opacity="1" fill-rule="nonzero"/><path fill="#f8b446" d="M 50.964844 119.183594 L 50.964844 133.621094 L 56.476562 133.621094 L 56.476562 121.910156 L 62.882812 121.910156 L 62.882812 119.183594 L 50.964844 119.183594 " fill-opacity="1" fill-rule="nonzero"/><path fill="#fbe168" d="M 62.882812 117.320312 L 56.476562 117.320312 L 56.476562 110.03125 L 63.300781 110.03125 L 63.300781 105.230469 L 50.964844 105.230469 L 50.964844 119.183594 L 62.882812 119.183594 L 62.882812 117.320312 " fill-opacity="1" fill-rule="nonzero"/><path fill="#fbe168" d="M 75.21875 109.695312 C 77.703125 109.695312 78.460938 114.203125 78.460938 119.175781 C 78.460938 119.175781 78.460938 119.179688 78.460938 119.183594 L 84.222656 119.183594 C 84.226562 119.09375 84.226562 119.011719 84.226562 118.917969 C 84.226562 112.433594 82.292969 104.894531 75.425781 104.894531 C 69.199219 104.894531 66.125 111.5 66.082031 119.183594 L 71.8125 119.183594 C 71.839844 113.226562 73.058594 109.695312 75.21875 109.695312 " fill-opacity="1" fill-rule="nonzero"/><path fill="#f8b446" d="M 78.460938 119.183594 C 78.460938 124.949219 77.574219 129.15625 75.257812 129.15625 C 73.027344 129.15625 71.808594 125.871094 71.808594 119.425781 C 71.808594 119.34375 71.808594 119.265625 71.8125 119.183594 L 66.082031 119.183594 C 66.082031 119.238281 66.078125 119.289062 66.078125 119.34375 C 66.078125 127.132812 68.605469 133.960938 75.050781 133.960938 C 80.390625 133.960938 84.160156 129.683594 84.222656 119.183594 L 78.460938 119.183594 " fill-opacity="1" fill-rule="nonzero"/><path fill="#fbe168" d="M 94.207031 118.035156 L 93.238281 118.035156 L 93.238281 109.570312 C 93.53125 109.445312 94.082031 109.402344 94.542969 109.402344 C 97.027344 109.488281 97.996094 111.214844 97.996094 113.617188 C 97.996094 116.101562 96.609375 118.035156 94.207031 118.035156 Z M 103.558594 113.109375 C 103.558594 110.664062 103.050781 108.769531 101.324219 107.214844 C 99.472656 105.527344 96.777344 105.105469 93.742188 105.105469 C 91.640625 105.105469 89.449219 105.316406 87.722656 105.652344 L 87.722656 119.183594 L 100.8125 119.183594 C 102.625 117.699219 103.558594 115.5 103.558594 113.109375 " fill-opacity="1" fill-rule="nonzero"/><path fill="#f8b446" d="M 99.175781 120.3125 L 99.175781 120.226562 C 99.789062 119.941406 100.324219 119.585938 100.8125 119.183594 L 87.722656 119.183594 L 87.722656 133.621094 L 93.238281 133.621094 L 93.238281 122.289062 L 94.039062 122.289062 C 95.890625 122.289062 96.777344 123.300781 97.28125 126.839844 C 97.703125 129.957031 98.335938 132.820312 98.671875 133.621094 L 104.441406 133.621094 C 103.933594 132.566406 103.175781 129.074219 102.628906 125.914062 C 102.082031 122.878906 101.113281 121.070312 99.175781 120.3125 " fill-opacity="1" fill-rule="nonzero"/><path fill="#fbe168" d="M 120.691406 118.035156 L 119.722656 118.035156 L 119.722656 109.570312 C 120.019531 109.445312 120.5625 109.402344 121.027344 109.402344 C 123.515625 109.488281 124.484375 111.214844 124.484375 113.617188 C 124.484375 116.101562 123.089844 118.035156 120.691406 118.035156 Z M 130.039062 113.109375 C 130.039062 110.664062 129.535156 108.769531 127.808594 107.214844 C 125.957031 105.527344 123.257812 105.105469 120.230469 105.105469 C 118.125 105.105469 115.933594 105.316406 114.207031 105.652344 L 114.207031 119.183594 L 127.292969 119.183594 C 129.105469 117.699219 130.039062 115.5 130.039062 113.109375 " fill-opacity="1" fill-rule="nonzero"/><path fill="#f8b446" d="M 125.660156 120.3125 L 125.660156 120.226562 C 126.273438 119.941406 126.808594 119.585938 127.292969 119.183594 L 114.207031 119.183594 L 114.207031 133.621094 L 119.722656 133.621094 L 119.722656 122.289062 L 120.523438 122.289062 C 122.375 122.289062 123.257812 123.300781 123.765625 126.839844 C 124.1875 129.957031 124.816406 132.820312 125.15625 133.621094 L 130.921875 133.621094 C 130.417969 132.566406 129.660156 129.074219 129.113281 125.914062 C 128.566406 122.878906 127.597656 121.070312 125.660156 120.3125 " fill-opacity="1" fill-rule="nonzero"/><path fill="#fbe168" d="M 146 116.5625 L 139.511719 116.5625 L 139.511719 110.03125 L 146.335938 110.03125 L 146.335938 105.230469 L 133.996094 105.230469 L 133.996094 119.183594 L 146 119.183594 L 146 116.5625 " fill-opacity="1" fill-rule="nonzero"/><path fill="#f8b446" d="M 139.511719 121.152344 L 146 121.152344 L 146 119.183594 L 133.996094 119.183594 L 133.996094 133.621094 L 146.839844 133.621094 L 146.839844 128.816406 L 139.511719 128.816406 L 139.511719 121.152344 " fill-opacity="1" fill-rule="nonzero"/><path fill="#f8b446" d="M 150.585938 133.621094 L 155.429688 133.621094 L 155.429688 127.21875 C 155.429688 124.144531 155.367188 121.464844 155.289062 119.183594 L 150.585938 119.183594 L 150.585938 133.621094 " fill-opacity="1" fill-rule="nonzero"/><path fill="#fbe168" d="M 160.019531 116.351562 L 155.640625 105.230469 L 150.585938 105.230469 L 150.585938 119.183594 L 155.289062 119.183594 C 155.226562 117.25 155.152344 115.605469 155.089844 114.289062 L 155.175781 114.289062 C 155.53125 115.730469 156.101562 117.488281 156.695312 119.183594 L 161.09375 119.183594 C 160.699219 118.132812 160.324219 117.144531 160.019531 116.351562 " fill-opacity="1" fill-rule="nonzero"/><path fill="#fbe168" d="M 167.429688 105.230469 L 162.589844 105.230469 L 162.589844 111.507812 C 162.589844 114.226562 162.691406 116.859375 162.8125 119.183594 L 167.429688 119.183594 L 167.429688 105.230469 " fill-opacity="1" fill-rule="nonzero"/><path fill="#f8b446" d="M 162.8125 119.183594 C 162.925781 121.328125 163.054688 123.214844 163.136719 124.648438 L 163.050781 124.648438 C 162.539062 123.089844 161.792969 121.035156 161.09375 119.183594 L 156.695312 119.183594 C 157.160156 120.507812 157.632812 121.789062 158.042969 122.839844 L 162.378906 133.621094 L 167.429688 133.621094 L 167.429688 119.183594 L 162.8125 119.183594 " fill-opacity="1" fill-rule="nonzero"/><path fill="#f8b446" d="M 175.390625 119.183594 L 175.390625 133.621094 L 180.902344 133.621094 L 180.902344 119.183594 L 175.390625 119.183594 " fill-opacity="1" fill-rule="nonzero"/><path fill="#fbe168" d="M 180.902344 110.328125 L 185.957031 110.328125 L 185.957031 105.230469 L 170.378906 105.230469 L 170.378906 110.328125 L 175.390625 110.328125 L 175.390625 119.183594 L 180.902344 119.183594 L 180.902344 110.328125 " fill-opacity="1" fill-rule="nonzero"/></svg>